<svg width="15" height="15" viewBox="0 0 15 15" fill="none" xmlns="http://www.w3.org/2000/svg">
<path d="M9.06432 8.36439C9.45765 8.12533 9.76199 7.76417 9.93092 7.33602C10.0998 6.90786 10.1241 6.4362 9.99997 5.99297C9.87584 5.54975 9.61015 5.15929 9.24341 4.88115C8.87668 4.60301 8.42903 4.45246 7.96875 4.45246C7.50847 4.45246 7.06083 4.60301 6.69409 4.88115C6.32735 5.15929 6.06166 5.54975 5.93753 5.99297C5.8134 6.4362 5.83765 6.90786 6.00658 7.33602C6.17551 7.76417 6.47985 8.12533 6.87318 8.36439C6.11168 8.59567 5.44425 9.06474 4.96868 9.70287C4.9502 9.72748 4.93674 9.75549 4.92908 9.7853C4.92142 9.81511 4.9197 9.84614 4.92403 9.87661C4.92836 9.90708 4.93866 9.9364 4.95432 9.9629C4.96998 9.9894 4.99071 10.0125 5.01532 10.031C5.03993 10.0495 5.06793 10.063 5.09774 10.0706C5.12755 10.0783 5.15858 10.08 5.18905 10.0757C5.21953 10.0713 5.24885 10.0611 5.27534 10.0454C5.30184 10.0297 5.32499 10.009 5.34348 9.9844C5.64916 9.57688 6.04551 9.24612 6.50116 9.01831C6.95681 8.79049 7.45924 8.67189 7.96866 8.67188C8.47809 8.67186 8.98052 8.79045 9.43618 9.01824C9.89184 9.24603 10.2882 9.57678 10.5939 9.98428C10.6124 10.0089 10.6355 10.0296 10.662 10.0453C10.6885 10.0609 10.7179 10.0712 10.7483 10.0756C10.7788 10.0799 10.8098 10.0782 10.8396 10.0705C10.8695 10.0629 10.8975 10.0494 10.9221 10.0309C10.9467 10.0124 10.9674 9.98928 10.9831 9.96279C10.9987 9.93629 11.009 9.90697 11.0134 9.8765C11.0177 9.84602 11.016 9.815 11.0083 9.78519C11.0006 9.75538 10.9872 9.72737 10.9687 9.70276C10.4932 9.06468 9.82577 8.59565 9.06432 8.36439ZM6.32812 6.5625C6.32812 6.23802 6.42435 5.92082 6.60462 5.65102C6.78489 5.38122 7.04113 5.17093 7.34091 5.04676C7.6407 4.92259 7.97057 4.8901 8.28882 4.9534C8.60707 5.0167 8.8994 5.17296 9.12885 5.4024C9.35829 5.63185 9.51455 5.92418 9.57785 6.24243C9.64116 6.56068 9.60866 6.89055 9.48449 7.19034C9.36031 7.49012 9.15003 7.74636 8.88023 7.92663C8.61043 8.1069 8.29323 8.20312 7.96875 8.20312C7.53378 8.20264 7.11676 8.02963 6.80919 7.72206C6.50162 7.41449 6.32861 6.99747 6.32812 6.5625ZM12.1875 1.64062H3.75C3.56358 1.64083 3.38486 1.71498 3.25305 1.8468C3.12123 1.97861 3.04708 2.15733 3.04688 2.34375V3.75H1.875C1.81284 3.75 1.75323 3.77469 1.70927 3.81865C1.66532 3.8626 1.64062 3.92221 1.64062 3.98438C1.64062 4.04654 1.66532 4.10615 1.70927 4.1501C1.75323 4.19406 1.81284 4.21875 1.875 4.21875H3.04688V6.09375H1.875C1.81284 6.09375 1.75323 6.11844 1.70927 6.1624C1.66532 6.20635 1.64062 6.26596 1.64062 6.32812C1.64062 6.39029 1.66532 6.4499 1.70927 6.49385C1.75323 6.53781 1.81284 6.5625 1.875 6.5625H3.04688V8.4375H1.875C1.81284 8.4375 1.75323 8.46219 1.70927 8.50615C1.66532 8.5501 1.64062 8.60971 1.64062 8.67188C1.64062 8.73404 1.66532 8.79365 1.70927 8.8376C1.75323 8.88156 1.81284 8.90625 1.875 8.90625H3.04688V10.7812H1.875C1.81284 10.7812 1.75323 10.8059 1.70927 10.8499C1.66532 10.8939 1.64062 10.9535 1.64062 11.0156C1.64062 11.0778 1.66532 11.1374 1.70927 11.1814C1.75323 11.2253 1.81284 11.25 1.875 11.25H3.04688V12.6562C3.04708 12.8427 3.12123 13.0214 3.25305 13.1532C3.38486 13.285 3.56358 13.3592 3.75 13.3594H12.1875C12.3739 13.3592 12.5526 13.285 12.6845 13.1532C12.8163 13.0214 12.8904 12.8427 12.8906 12.6562V2.34375C12.8904 2.15733 12.8163 1.97861 12.6845 1.8468C12.5526 1.71498 12.3739 1.64083 12.1875 1.64062ZM12.4219 12.6562C12.4218 12.7184 12.3971 12.778 12.3532 12.8219C12.3092 12.8658 12.2496 12.8906 12.1875 12.8906H3.75C3.68786 12.8906 3.62828 12.8658 3.58434 12.8219C3.54041 12.778 3.51569 12.7184 3.51562 12.6562V2.34375C3.51569 2.28161 3.54041 2.22203 3.58434 2.17809C3.62828 2.13416 3.68786 2.10944 3.75 2.10938H12.1875C12.2496 2.10944 12.3092 2.13416 12.3532 2.17809C12.3971 2.22203 12.4218 2.28161 12.4219 2.34375V12.6562Z" fill="#ABB0B9"/>
</svg>
