<svg width="15" height="11" viewBox="0 0 15 11" fill="none" xmlns="http://www.w3.org/2000/svg">
<path d="M14.3507 4.85071H2.21683L5.11214 1.95522C5.36578 1.70172 5.36578 1.2905 5.11214 1.03704C4.85849 0.78339 4.44727 0.78339 4.194 1.03704L0.190236 5.04087C-0.0634119 5.29437 -0.0634119 5.70563 0.190236 5.95905L4.194 9.96307C4.32078 10.0899 4.48694 10.1533 4.65307 10.1533C4.81919 10.1533 4.98535 10.0899 5.11214 9.96307C5.36578 9.70957 5.36578 9.29835 5.11214 9.04493L2.21683 6.14929H14.3507C14.7092 6.14929 15 5.85855 15 5.49998C15 5.14141 14.7093 4.85071 14.3507 4.85071Z" fill="black"/>
</svg>
