<svg width="26" height="26" viewBox="0 0 26 26" fill="none" xmlns="http://www.w3.org/2000/svg">
<rect x="0.5" y="0.5" width="24.5769" height="24.5769" rx="12.2885" fill="white" stroke="#DDDDDB"/>
<g clip-path="url(#clip0_1_635)">
<path d="M7.15625 9.12504C7.34537 8.93034 7.60363 8.81806 7.875 8.81254H17.4062L17.5312 7.75004C17.5617 7.52364 17.6738 7.31615 17.8464 7.16654C18.019 7.01693 18.2403 6.9355 18.4687 6.93754H19.4375C19.6033 6.93754 19.7622 7.00339 19.8794 7.1206C19.9967 7.23781 20.0625 7.39678 20.0625 7.56254C20.0625 7.7283 19.9967 7.88727 19.8794 8.00448C19.7622 8.12169 19.6033 8.18754 19.4375 8.18754H18.75L17.75 16.5938C18.0269 16.7573 18.2563 16.9905 18.4153 17.27C18.5742 17.5496 18.6573 17.8659 18.6562 18.1875C18.6562 18.6848 18.4587 19.1617 18.1071 19.5134C17.7554 19.865 17.2785 20.0625 16.7812 20.0625C16.3933 20.0565 16.0161 19.9341 15.6986 19.7112C15.381 19.4884 15.1376 19.1753 15 18.8125H11.6875C11.5499 19.1753 11.3065 19.4884 10.9889 19.7112C10.6714 19.9341 10.2942 20.0565 9.90625 20.0625C9.40897 20.0625 8.93205 19.865 8.58042 19.5134C8.22879 19.1617 8.03125 18.6848 8.03125 18.1875C8.03125 17.6903 8.22879 17.2133 8.58042 16.8617C8.93205 16.5101 9.40897 16.3125 9.90625 16.3125C10.2942 16.3186 10.6714 16.441 10.9889 16.6638C11.3065 16.8867 11.5499 17.1998 11.6875 17.5625H15C15.1182 17.2381 15.3238 16.9526 15.594 16.7375C15.8642 16.5225 16.1885 16.3862 16.5312 16.3438L16.5937 15.6875H8.6875C8.46447 15.6821 8.2507 15.5973 8.08459 15.4484C7.91848 15.2994 7.81093 15.0961 7.78125 14.875L6.9375 9.93754C6.90257 9.6486 6.98098 9.35738 7.15625 9.12504ZM9.28125 18.1875C9.28125 18.3112 9.3179 18.432 9.38658 18.5348C9.45526 18.6376 9.55287 18.7177 9.66707 18.765C9.78128 18.8123 9.90694 18.8246 10.0282 18.8005C10.1494 18.7764 10.2608 18.7169 10.3482 18.6295C10.4356 18.5421 10.4951 18.4307 10.5192 18.3095C10.5434 18.1882 10.531 18.0626 10.4837 17.9484C10.4364 17.8342 10.3563 17.7365 10.2535 17.6679C10.1507 17.5992 10.0299 17.5625 9.90625 17.5625C9.74049 17.5625 9.58152 17.6284 9.46431 17.7456C9.3471 17.8628 9.28125 18.0218 9.28125 18.1875ZM16.1562 18.1875C16.1562 18.3112 16.1929 18.432 16.2616 18.5348C16.3303 18.6376 16.4279 18.7177 16.5421 18.765C16.6563 18.8123 16.7819 18.8246 16.9032 18.8005C17.0244 18.7764 17.1358 18.7169 17.2232 18.6295C17.3106 18.5421 17.3701 18.4307 17.3942 18.3095C17.4184 18.1882 17.406 18.0626 17.3587 17.9484C17.3114 17.8342 17.2313 17.7365 17.1285 17.6679C17.0257 17.5992 16.9049 17.5625 16.7812 17.5625C16.6155 17.5625 16.4565 17.6284 16.3393 17.7456C16.2221 17.8628 16.1562 18.0218 16.1562 18.1875ZM8.96875 14.4375H16.75L17.25 10.0625H8.25L8.96875 14.4375Z" fill="#FF6464"/>
</g>
<defs>
<clipPath id="clip0_1_635">
<rect width="15" height="15" fill="white" transform="matrix(-1 0 0 1 21 6)"/>
</clipPath>
</defs>
</svg>
