<svg width="27" height="26" viewBox="0 0 27 26" fill="none" xmlns="http://www.w3.org/2000/svg">
<rect x="0.970703" y="0.5" width="24.9531" height="24.5769" rx="12.2885" fill="white" stroke="#DDDDDB"/>
<g clip-path="url(#clip0_1_1940)">
<path d="M13.5981 8C14.6488 8 15.5006 8.83947 15.5006 9.875H17.4032C17.5783 9.875 17.7203 10.0149 17.7203 10.1875C17.7203 10.3601 17.5783 10.5 17.4032 10.5L16.4519 10.4997V16.125C16.4519 17.1605 15.6001 18 14.5493 18H10.7442C9.69344 18 8.84162 17.1605 8.84162 16.125V10.5H7.89034C7.71521 10.5 7.57324 10.3601 7.57324 10.1875C7.57324 10.0149 7.71521 9.875 7.89034 9.875H9.79291C9.79291 8.83947 10.6447 8 11.6955 8H13.5981ZM15.8177 10.5H9.47582V16.125C9.47582 16.7944 10.0098 17.341 10.6809 17.3735L10.7442 17.375H14.5493C15.2286 17.375 15.7832 16.8488 15.8162 16.1874L15.8177 16.125V10.5ZM11.6955 12.375C11.8706 12.375 12.0126 12.5149 12.0126 12.6875V14.875C12.0126 15.0476 11.8706 15.1875 11.6955 15.1875C11.5204 15.1875 11.3784 15.0476 11.3784 14.875V12.6875C11.3784 12.5149 11.5204 12.375 11.6955 12.375ZM13.5981 12.375C13.7732 12.375 13.9152 12.5149 13.9152 12.6875V14.875C13.9152 15.0476 13.7732 15.1875 13.5981 15.1875C13.4229 15.1875 13.281 15.0476 13.281 14.875V12.6875C13.281 12.5149 13.4229 12.375 13.5981 12.375ZM13.5981 8.625H11.6955C11.0162 8.625 10.4616 9.15124 10.4287 9.81261L10.4271 9.875H12.6468H14.8664C14.8664 9.20556 14.3325 8.65904 13.6614 8.62653L13.5981 8.625Z" fill="#FF6464"/>
</g>
<defs>
<clipPath id="clip0_1_1940">
<rect width="10.1471" height="10" fill="white" transform="translate(7.57324 8)"/>
</clipPath>
</defs>
</svg>
