<svg width="25" height="25" viewBox="0 0 25 25" fill="none" xmlns="http://www.w3.org/2000/svg">
<g clip-path="url(#clip0_1_5217)">
<path d="M24.9368 13.7633C24.9785 13.3478 25 12.9264 25 12.5C25 5.59644 19.4036 0 12.5 0C5.59644 0 0 5.59644 0 12.5C0 18.9246 4.84717 24.2163 11.0838 24.9197L24.9368 13.7633Z" fill="#458FDE"/>
<path d="M24.9369 13.7633L22.0429 10.8693L19.8458 11.1283L14.1525 5.43506L3.28345 17.1193L11.0839 24.9197C11.5488 24.9722 12.0212 25 12.5001 25C18.9772 25 24.3035 20.0736 24.9369 13.7633Z" fill="#4A75C3"/>
<path d="M16.7736 7.06543H12.5227V15.7605L22.0428 14.6737V10.8692L19.8689 10.1607L16.7736 7.06543Z" fill="#FFD652"/>
<path d="M21.0552 14.6736C20.4121 14.0044 19.5093 13.5867 18.5101 13.5867C17.5108 13.5867 16.608 14.0044 15.9649 14.6736L12.5225 14.6735L14.1529 17.1192L22.0427 17.1193V14.6736H21.0552Z" fill="#FDBA4C"/>
<path d="M14.1524 5.43506V13.5867L6.00024 14.6736L9.80469 5.43525L14.1524 5.43506Z" fill="#F7EDBC"/>
<path d="M8.71773 6.52202V14.6736L3.28345 13.5867V5.43506H7.63081L8.71773 6.52202Z" fill="white"/>
<path d="M9.80479 5.4353H7.63086V9.51089H9.80479V5.4353Z" fill="#FFD652"/>
<path d="M14.153 13.5867H3.28345V14.6736L8.98999 16.0323L14.153 14.6736V13.5867Z" fill="#CCCCCC"/>
<path d="M14.1528 14.6733H3.2832V17.119H14.1528V14.6733Z" fill="#B2B2B2"/>
<path d="M6.81626 19.565L5.34888 17.1194L6.81626 14.6737C8.16479 14.6737 9.26191 15.7708 9.26191 17.1194C9.26191 18.4679 8.16484 19.565 6.81626 19.565Z" fill="#383838"/>
<path d="M4.37061 17.1193C4.37061 18.4678 5.46772 19.5649 6.81626 19.5649V14.6736C5.46772 14.6736 4.37061 15.7708 4.37061 17.1193Z" fill="#4C4C4C"/>
<path d="M6.81621 18.478L6.00098 17.1193L6.81621 15.7606C7.56538 15.7606 8.1749 16.3701 8.1749 17.1193C8.1749 17.8685 7.56538 18.478 6.81621 18.478Z" fill="#CCCCCC"/>
<path d="M5.45752 17.1193C5.45752 17.8685 6.06704 18.478 6.81621 18.478V15.7606C6.06699 15.7606 5.45752 16.3701 5.45752 17.1193Z" fill="white"/>
<path d="M18.5101 19.565L17.0427 17.1194L18.5101 14.6737C19.8586 14.6737 20.9558 15.7708 20.9558 17.1194C20.9558 18.4679 19.8586 19.565 18.5101 19.565Z" fill="#383838"/>
<path d="M16.0645 17.1193C16.0645 18.4678 17.1616 19.5649 18.5101 19.5649V14.6736C17.1616 14.6736 16.0645 15.7708 16.0645 17.1193Z" fill="#4C4C4C"/>
<path d="M18.5101 18.4779L17.6948 17.1192L18.5101 15.7605C19.2592 15.7605 19.8688 16.37 19.8688 17.1192C19.8688 17.8684 19.2592 18.4779 18.5101 18.4779Z" fill="#CCCCCC"/>
<path d="M17.1514 17.1192C17.1514 17.8684 17.7609 18.4779 18.5101 18.4779V15.7605C17.7609 15.7605 17.1514 16.37 17.1514 17.1192Z" fill="white"/>
</g>
<defs>
<clipPath id="clip0_1_5217">
<rect width="25" height="25" fill="white"/>
</clipPath>
</defs>
</svg>
