<svg width="22" height="22" viewBox="0 0 22 22" fill="none" xmlns="http://www.w3.org/2000/svg">
<path d="M21.3125 11.6875V16.5C21.3125 16.8781 21.0031 17.1875 20.625 17.1875H13.75C13.3719 17.1875 13.0625 16.8781 13.0625 16.5V8.25C13.0625 7.87187 13.3719 7.5625 13.75 7.5625H17.875C18.0813 7.5625 18.2806 7.65875 18.4113 7.82375L21.1613 11.2544C21.1956 11.3025 21.23 11.3575 21.2575 11.4125C21.2575 11.4194 21.2575 11.4194 21.2575 11.4194C21.2575 11.4194 21.2575 11.4194 21.2575 11.4263C21.2987 11.5088 21.3125 11.5981 21.3125 11.6875Z" fill="#48B1DD"/>
<path d="M14.4375 4.125V17.1875H5.5C5.12187 17.1875 4.8125 16.8781 4.8125 16.5V4.125C4.8125 3.74687 5.12187 3.4375 5.5 3.4375H13.75C14.1281 3.4375 14.4375 3.74687 14.4375 4.125Z" fill="#96CEE5"/>
<path d="M21.3125 11.6875V11.6944L17.1875 11.6875V7.5625H17.875C18.0813 7.5625 18.2806 7.65875 18.4113 7.82375L21.1613 11.2544C21.1956 11.3025 21.23 11.3575 21.2575 11.4125C21.2575 11.4194 21.2575 11.4194 21.2575 11.4194C21.2575 11.4194 21.2575 11.4194 21.2575 11.4263C21.2987 11.5088 21.3125 11.5981 21.3125 11.6875Z" fill="#96CEE5"/>
<path d="M19.25 16.5C19.25 17.6344 18.3219 18.5625 17.1875 18.5625C16.0531 18.5625 15.125 17.6344 15.125 16.5C15.125 15.3656 16.0531 14.4375 17.1875 14.4375C18.3219 14.4375 19.25 15.3656 19.25 16.5Z" fill="#4391B2"/>
<path d="M11.6875 16.5C11.6875 17.6344 10.7594 18.5625 9.625 18.5625C8.49063 18.5625 7.5625 17.6344 7.5625 16.5C7.5625 15.3656 8.49063 14.4375 9.625 14.4375C10.7594 14.4375 11.6875 15.3656 11.6875 16.5Z" fill="#4391B2"/>
<path d="M8.9375 7.5625H1.375C0.995362 7.5625 0.6875 7.25498 0.6875 6.875C0.6875 6.49502 0.995362 6.1875 1.375 6.1875H8.9375C9.31714 6.1875 9.625 6.49502 9.625 6.875C9.625 7.25498 9.31714 7.5625 8.9375 7.5625Z" fill="#4391B2"/>
<path d="M9.625 12.375H3.4375C3.05786 12.375 2.75 12.0675 2.75 11.6875C2.75 11.3075 3.05786 11 3.4375 11H9.625C10.0046 11 10.3125 11.3075 10.3125 11.6875C10.3125 12.0675 10.0046 12.375 9.625 12.375Z" fill="#4391B2"/>
</svg>
