<svg width="20" height="20" viewBox="0 0 20 20" fill="none" xmlns="http://www.w3.org/2000/svg">
<path fill-rule="evenodd" clip-rule="evenodd" d="M9.99984 3.33329C6.31794 3.33329 3.33317 6.31806 3.33317 9.99996C3.33317 13.6819 6.31794 16.6666 9.99984 16.6666C13.6818 16.6666 16.6665 13.6819 16.6665 9.99996V9.58329C16.6665 9.12304 17.0396 8.74996 17.4998 8.74996C17.9601 8.74996 18.3332 9.12304 18.3332 9.58329V9.99996C18.3332 14.6023 14.6022 18.3333 9.99984 18.3333C5.39746 18.3333 1.6665 14.6023 1.6665 9.99996C1.6665 5.39758 5.39746 1.66663 9.99984 1.66663H10.4165C10.8768 1.66663 11.2498 2.03973 11.2498 2.49996C11.2498 2.96019 10.8768 3.33329 10.4165 3.33329H9.99984Z" fill="#3E4958"/>
<path fill-rule="evenodd" clip-rule="evenodd" d="M14.3462 2.35069C14.7842 1.91269 15.3783 1.66663 15.9977 1.66663C16.6171 1.66663 17.2111 1.91269 17.6491 2.35069C18.0871 2.78869 18.3332 3.38274 18.3332 4.00217C18.3332 4.62159 18.0871 5.21565 17.6491 5.65365L16.9965 6.30627C16.6711 6.63171 16.1434 6.63171 15.818 6.30627L13.6935 4.18183C13.3681 3.85638 13.3681 3.32875 13.6935 3.00331L14.3462 2.35069ZM12.515 5.36033C12.1896 5.03489 11.6619 5.03489 11.3365 5.36033L7.61875 9.07813C7.51195 9.18488 7.43619 9.31871 7.39956 9.46521L6.69141 12.2979C6.62041 12.5818 6.70361 12.8822 6.9106 13.0892C7.11758 13.2962 7.41799 13.3794 7.70197 13.3084L10.5346 12.6003C10.6811 12.5636 10.8149 12.4879 10.9217 12.381L14.6395 8.66329C14.9649 8.33788 14.9649 7.81022 14.6395 7.48478L12.515 5.36033Z" fill="#3E4958"/>
</svg>
