<svg width="27" height="26" viewBox="0 0 27 26" fill="none" xmlns="http://www.w3.org/2000/svg">
<rect x="1.48535" y="0.5" width="24.9531" height="24.5769" rx="12.2885" fill="white" stroke="#DDDDDB"/>
<g clip-path="url(#clip0_1_1933)">
<path fill-rule="evenodd" clip-rule="evenodd" d="M16.3551 8.62816C16.4488 8.51811 16.5636 8.42734 16.6929 8.36103C16.8222 8.29471 16.9636 8.25416 17.1088 8.24168C17.254 8.2292 17.4003 8.24505 17.5393 8.2883C17.6783 8.33156 17.8074 8.40138 17.919 8.49379L18.3642 8.86191C18.5896 9.04834 18.7307 9.31536 18.7564 9.60427C18.7821 9.89318 18.6903 10.1803 18.5012 10.4025L14.8837 14.6513C14.6215 14.9594 14.2985 15.2118 13.9344 15.3932L12.3032 16.205C12.2202 16.2464 12.1266 16.2627 12.0342 16.2522C11.9417 16.2416 11.8545 16.2046 11.7832 16.1457C11.7119 16.0867 11.6597 16.0085 11.6331 15.9206C11.6065 15.8327 11.6067 15.7391 11.6335 15.6513L12.1618 13.9269C12.2796 13.5421 12.4755 13.1849 12.7376 12.8769L16.3551 8.62816ZM17.3076 9.21191C17.2917 9.19862 17.2733 9.18855 17.2534 9.1823C17.2335 9.17604 17.2125 9.17372 17.1917 9.17546C17.1709 9.1772 17.1507 9.18298 17.1322 9.19245C17.1136 9.20192 17.0972 9.21491 17.0838 9.23066L16.7476 9.62629L17.4338 10.1975L17.7725 9.80004C17.7995 9.76828 17.8125 9.72728 17.8089 9.68603C17.8052 9.64478 17.785 9.60665 17.7528 9.58004L17.307 9.21129L17.3076 9.21191ZM16.8225 10.9157L16.1363 10.3444L13.4663 13.4794C13.287 13.6902 13.153 13.9348 13.0725 14.1982L12.8651 14.875L13.5056 14.5563C13.7548 14.4322 13.9757 14.2596 14.1551 14.0488L16.8225 10.9157Z" fill="#FF6464"/>
<path d="M11.1633 10.1875C11.0371 10.1875 10.9161 10.2369 10.8269 10.3248C10.7377 10.4127 10.6876 10.5319 10.6876 10.6562V16.5938C10.6876 16.8525 10.9007 17.0625 11.1633 17.0625H17.1881C17.3142 17.0625 17.4352 17.0131 17.5244 16.9252C17.6136 16.8373 17.6637 16.7181 17.6637 16.5938V13.625C17.6637 13.5007 17.7138 13.3815 17.803 13.2935C17.8922 13.2056 18.0132 13.1562 18.1394 13.1562C18.2655 13.1562 18.3865 13.2056 18.4757 13.2935C18.5649 13.3815 18.615 13.5007 18.615 13.625V16.5938C18.615 16.9667 18.4647 17.3244 18.1971 17.5881C17.9295 17.8518 17.5665 18 17.1881 18H11.1633C10.7848 18 10.4219 17.8518 10.1543 17.5881C9.88666 17.3244 9.73633 16.9667 9.73633 16.5938V10.6562C9.73633 10.2833 9.88666 9.9256 10.1543 9.66188C10.4219 9.39816 10.7848 9.25 11.1633 9.25H12.9073C13.0334 9.25 13.1544 9.29939 13.2436 9.38729C13.3328 9.4752 13.3829 9.59443 13.3829 9.71875C13.3829 9.84307 13.3328 9.9623 13.2436 10.0502C13.1544 10.1381 13.0334 10.1875 12.9073 10.1875H11.1633Z" fill="#FF6464"/>
</g>
<defs>
<clipPath id="clip0_1_1933">
<rect width="10.1471" height="10" fill="white" transform="translate(9.10254 8)"/>
</clipPath>
</defs>
</svg>
