<svg width="17" height="12" viewBox="0 0 17 12" fill="none" xmlns="http://www.w3.org/2000/svg">
<path d="M15.0115 0.75H2.05803C1.23269 0.75 0.563599 1.33761 0.563599 2.0625V9.9375C0.563599 10.6624 1.23269 11.25 2.05803 11.25H15.0115C15.8368 11.25 16.5059 10.6624 16.5059 9.9375V2.0625C16.5059 1.33761 15.8368 0.75 15.0115 0.75ZM16.0078 9.74299L11.2956 5.6045L16.0078 2.96734V9.74299ZM2.05803 1.1875H15.0115C15.5608 1.1875 16.0078 1.58 16.0078 2.0625V2.4489L9.1494 6.28731C8.77823 6.49497 8.30418 6.48856 7.9415 6.27193L1.06174 2.1652V2.0625C1.06174 1.58 1.5087 1.1875 2.05803 1.1875ZM1.06174 2.69364L5.84036 5.54612L1.06174 9.74299V2.69364ZM15.0115 10.8125H2.05803C1.64771 10.8125 1.2949 10.5933 1.14242 10.2814L6.25335 5.79265L7.6618 6.63339C7.93226 6.79489 8.24507 6.87585 8.55835 6.87585C8.85607 6.87585 9.15426 6.80279 9.41673 6.65603L10.8719 5.84162L15.9271 10.2814C15.7746 10.5933 15.4218 10.8125 15.0115 10.8125Z" fill="#ABB0B9"/>
</svg>
