<svg width="15" height="17" viewBox="0 0 15 17" fill="none" xmlns="http://www.w3.org/2000/svg">
<path d="M14.6664 3.85183V12.7042C14.6664 13.6316 14.0712 14.559 13.1358 14.8962L8.8841 16.4981C8.62901 16.5823 8.37393 16.6667 8.03376 16.6667C7.6086 16.6667 7.09843 16.4981 6.67326 16.2452C6.50318 16.0765 6.2481 15.9079 6.16301 15.7393H2.93174C1.65623 15.7393 0.550781 14.7276 0.550781 13.3787V12.5356C0.550781 12.1983 0.80589 11.8611 1.23106 11.8611C1.65623 11.8611 1.91133 12.114 1.91133 12.5356V13.3787C1.91133 13.9688 2.42153 14.3903 2.93174 14.3903H5.73785V2.24998H2.93174C2.3365 2.24998 1.91133 2.67152 1.91133 3.26168V4.10475C1.91133 4.44199 1.65623 4.77922 1.23106 4.77922C0.80589 4.77922 0.550781 4.44199 0.550781 4.10475V3.26168C0.550781 1.99705 1.5712 0.901045 2.93174 0.901045H6.16301C6.3331 0.732428 6.50318 0.563812 6.67326 0.395195C7.35352 -0.0263464 8.11885 -0.110655 8.8841 0.14227L13.1358 1.74413C13.9862 1.99705 14.6664 2.92445 14.6664 3.85183Z" fill="#3E4958"/>
</svg>
