<svg width="15" height="15" viewBox="0 0 15 15" fill="none" xmlns="http://www.w3.org/2000/svg">
<path d="M2.34375 5.625H3.28125V4.6875H2.34375V5.625ZM6.09375 4.6875H7.03125V3.75H6.09375V4.6875ZM7.96875 4.6875H8.90625V3.75H7.96875V4.6875ZM9.84375 4.6875H10.7812V3.75H9.84375V4.6875ZM6.09375 2.8125H7.03125V1.875H6.09375V2.8125ZM7.96875 2.8125H8.90625V1.875H7.96875V2.8125ZM9.84375 2.8125H10.7812V1.875H9.84375V2.8125ZM6.09375 8.4375H7.03125V7.5H6.09375V8.4375ZM7.96875 8.4375H8.90625V7.5H7.96875V8.4375ZM9.84375 8.4375H10.7812V7.5H9.84375V8.4375ZM6.09375 10.3125H7.03125V9.375H6.09375V10.3125ZM9.84375 10.3125H10.7812V9.375H9.84375V10.3125ZM6.09375 12.1875H7.03125V11.25H6.09375V12.1875ZM9.84375 12.1875H10.7812V11.25H9.84375V12.1875ZM12.6562 11.25H13.5938V10.3125H12.6562V11.25ZM12.6562 8.4375V9.375H13.5938V8.4375H12.6562ZM12.6562 13.125H13.5938V12.1875H12.6562V13.125ZM6.09375 6.5625H7.03125V5.625H6.09375V6.5625ZM7.96875 6.5625H8.90625V5.625H7.96875V6.5625ZM9.84375 6.5625H10.7812V5.625H9.84375V6.5625ZM2.34375 7.5H3.28125V6.5625H2.34375V7.5ZM2.34375 9.375H3.28125V8.4375H2.34375V9.375ZM2.34375 11.25H3.28125V10.3125H2.34375V11.25ZM2.34375 13.125H3.28125V12.1875H2.34375V13.125ZM7.96875 10.3125H8.90625V9.375H7.96875V10.3125Z" fill="#B0BEC5"/>
<path fill-rule="evenodd" clip-rule="evenodd" d="M14.5312 14.0625C14.5312 14.5807 14.112 15 13.5938 15H1.40625C0.888047 15 0.46875 14.5807 0.46875 14.0625V3.75C0.46875 3.2318 0.888047 2.8125 1.40625 2.8125H4.21875V0.9375C4.21875 0.419297 4.63805 0 5.15625 0H11.7188C12.237 0 12.6562 0.419297 12.6562 0.9375V6.5625H13.5938C14.112 6.5625 14.5312 6.9818 14.5312 7.5V14.0625ZM4.21875 3.75H1.40625V14.0625H4.21875V3.75ZM11.7188 0.9375H5.15625V14.0625H7.96875V11.25H8.90625V14.0625H11.7188V0.9375ZM13.5938 7.5H12.6562V14.0625H13.5938V7.5Z" fill="#ABB0B9"/>
</svg>
