<svg width="13" height="15" viewBox="0 0 13 15" fill="none" xmlns="http://www.w3.org/2000/svg">
<path d="M6.5 15L6.0625 14.625C5.875 14.4375 0.875 10.3125 0.875 5.625C0.875 2.5 3.375 0 6.5 0C9.625 0 12.125 2.5 12.125 5.625C12.125 10.3125 7.125 14.4375 6.9375 14.625L6.5 15ZM6.5 1.25C4.0625 1.25 2.125 3.1875 2.125 5.625C2.125 9 5.3125 12.1875 6.5 13.3125C7.6875 12.1875 10.875 9 10.875 5.625C10.875 3.1875 8.875 1.25 6.5 1.25ZM6.5 8.125C5.125 8.125 4 7 4 5.625C4 4.25 5.125 3.125 6.5 3.125C7.875 3.125 9 4.25 9 5.625C9 7 7.875 8.125 6.5 8.125ZM6.5 4.375C5.8125 4.375 5.25 4.9375 5.25 5.625C5.25 6.3125 5.8125 6.875 6.5 6.875C7.1875 6.875 7.75 6.3125 7.75 5.625C7.75 4.9375 7.1875 4.375 6.5 4.375Z" fill="#ABB0B9"/>
</svg>
