<svg width="24" height="23" viewBox="0 0 24 23" fill="none" xmlns="http://www.w3.org/2000/svg">
<path fill-rule="evenodd" clip-rule="evenodd" d="M16.731 0.524126C15.1753 0.524109 14.1725 0.709443 13.0229 1.27213C12.5973 1.48045 12.198 1.73133 11.8272 2.02403C11.4706 1.74774 11.0873 1.50838 10.6793 1.30658C9.50744 0.726971 8.45319 0.524109 6.9533 0.524109C2.93624 0.524109 0.0170898 3.85251 0.0170898 8.1753C0.0170898 11.4399 1.83732 14.5934 5.22777 17.6428C7.00741 19.2434 9.27962 20.8273 10.9069 21.67L11.838 22.1521L12.769 21.67C14.3963 20.8273 16.6685 19.2434 18.4481 17.6428C21.8386 14.5934 23.6588 11.4399 23.6588 8.1753C23.6588 3.89826 20.7121 0.540613 16.731 0.524126ZM21.5095 8.17521C21.5095 10.7328 19.9901 13.365 17.0108 16.0447C15.3864 17.5056 13.2982 18.9656 11.8378 19.7315C10.3775 18.9656 8.28923 17.5056 6.66489 16.0447C3.68555 13.365 2.16622 10.7328 2.16622 8.17521C2.16622 4.98126 4.19042 2.67327 6.95318 2.67327C8.14573 2.67327 8.88061 2.81467 9.72635 3.23298C10.2259 3.48006 10.6674 3.80632 11.0496 4.21403L11.8403 5.05754L12.6239 4.20734C13.0147 3.7833 13.4627 3.44961 13.9677 3.20244C14.7886 2.8006 15.4776 2.67327 16.7264 2.67327C19.455 2.68458 21.5095 5.02558 21.5095 8.17521Z" fill="#97ADB6"/>
</svg>
