<svg width="22" height="23" viewBox="0 0 22 23" fill="none" xmlns="http://www.w3.org/2000/svg">
<path fill-rule="evenodd" clip-rule="evenodd" d="M11.1062 22.1521C5.13383 22.1521 0.292236 17.3105 0.292236 11.3381C0.292236 5.36571 5.13383 0.524109 11.1062 0.524109C17.0787 0.524109 21.9203 5.36571 21.9203 11.3381C21.9203 17.3105 17.0787 22.1521 11.1062 22.1521ZM18.3806 16.3761C19.3727 14.9464 19.9541 13.2101 19.9541 11.3381C19.9541 6.45158 15.9928 2.49027 11.1062 2.49027C6.21972 2.49027 2.25842 6.45158 2.25842 11.3381C2.25842 13.2101 2.83981 14.9464 3.83187 16.3761C4.9383 14.9147 7.53823 14.2874 11.1062 14.2874C14.6743 14.2874 17.2742 14.9147 18.3806 16.3761ZM16.9701 17.9639C16.6823 16.9293 14.6152 16.2536 11.1062 16.2536C7.59726 16.2536 5.5302 16.9293 5.24242 17.9639C6.80355 19.3465 8.85687 20.1859 11.1062 20.1859C13.3556 20.1859 15.4089 19.3465 16.9701 17.9639ZM11.1063 5.43953C8.72636 5.43953 7.17396 7.1656 7.17396 9.3719C7.17396 12.7413 8.90505 14.2874 11.1063 14.2874C13.2869 14.2874 15.0387 12.7927 15.0387 9.56851C15.0387 7.32862 13.4797 5.43953 11.1063 5.43953ZM9.14013 9.37177C9.14013 11.6027 9.94451 12.3211 11.1063 12.3211C12.2641 12.3211 13.0725 11.6313 13.0725 9.56839C13.0725 8.33994 12.3014 7.40559 11.1063 7.40559C9.86146 7.40559 9.14013 8.20762 9.14013 9.37177Z" fill="#97ADB6"/>
</svg>
