<svg width="16" height="14" viewBox="0 0 16 14" fill="none" xmlns="http://www.w3.org/2000/svg">
<path d="M1.48313 13.6805H14.5165C14.6001 13.6817 14.6831 13.665 14.7597 13.6315C14.8364 13.5979 14.905 13.5484 14.9609 13.4861C15.0062 13.4356 15.0402 13.376 15.0608 13.3114C15.0814 13.2468 15.088 13.1785 15.0804 13.1111C14.9336 11.9693 14.5139 10.8796 13.8567 9.93432C13.1996 8.98904 12.3245 8.21597 11.3054 7.68054C10.8718 8.1156 10.3566 8.46079 9.78939 8.69633C9.22215 8.93187 8.61399 9.05311 7.9998 9.05311C7.3856 9.05311 6.77744 8.93187 6.2102 8.69633C5.64296 8.46079 5.12779 8.1156 4.69424 7.68054C3.6751 8.21597 2.79994 8.98904 2.14284 9.93432C1.48574 10.8796 1.06603 11.9693 0.91924 13.1111C0.910698 13.1798 0.916936 13.2496 0.937536 13.3157C0.958135 13.3818 0.992621 13.4427 1.03868 13.4944C1.09535 13.5552 1.16427 13.6032 1.2409 13.6353C1.31752 13.6674 1.40009 13.6828 1.48313 13.6805Z" fill="#3E4958"/>
<path d="M5.06378 7.16661C5.13878 7.24717 5.21934 7.32217 5.29989 7.39439C6.04057 8.0612 7.00189 8.43018 7.9985 8.43018C8.99512 8.43018 9.95644 8.0612 10.6971 7.39439C10.7808 7.32278 10.8605 7.24675 10.936 7.16661C11.011 7.08605 11.086 7.0055 11.1554 6.91939C11.6363 6.32379 11.9387 5.60428 12.0279 4.84402C12.117 4.08376 11.9891 3.3138 11.6591 2.62315C11.329 1.9325 10.8102 1.34936 10.1627 0.941138C9.51519 0.532916 8.76536 0.316284 7.99989 0.316284C7.23443 0.316284 6.48459 0.532916 5.83707 0.941138C5.18954 1.34936 4.67077 1.9325 4.34071 2.62315C4.01066 3.3138 3.8828 4.08376 3.97192 4.84402C4.06104 5.60428 4.3635 6.32379 4.84434 6.91939C4.91378 6.99994 4.98878 7.08605 5.06378 7.16661Z" fill="#3E4958"/>
</svg>
