<svg width="22" height="22" viewBox="0 0 22 22" fill="none" xmlns="http://www.w3.org/2000/svg">
<path d="M12.9579 3.08128L13.8701 2.99007L12.9579 3.08128ZM12.8183 2.32977L12.0036 2.74996L12.8183 2.32977ZM13.2283 4.4164L13.9571 3.86042L13.2283 4.4164ZM14.0794 4.7689L13.9571 3.86042L14.0794 4.7689ZM15.2146 4.016L15.795 4.72546L15.2146 4.016ZM15.8447 3.58338L16.1236 4.45657L15.8447 3.58338ZM16.4881 3.61547L16.8526 2.77437L16.4881 3.61547ZM17.0721 4.10865L16.4239 4.75682V4.75683L17.0721 4.10865ZM17.8912 4.92766L18.5393 4.27948L17.8912 4.92766ZM18.3843 5.51165L19.2254 5.1472V5.14719L18.3843 5.51165ZM18.4164 6.15505L19.2896 6.434V6.43399L18.4164 6.15505ZM17.9837 6.78522L17.2743 6.20475L17.9837 6.78522ZM17.2309 7.92048L16.3224 7.79827V7.79827L17.2309 7.92048ZM17.5833 8.77148L17.0274 9.5003L17.5833 8.77148ZM18.9185 9.04182L19.0097 8.12971L18.9185 9.04182ZM19.67 9.18148L20.0902 8.36684L19.67 9.18148ZM20.1022 9.65915L20.9547 9.32209L20.1022 9.65915ZM20.1023 12.3407L19.2498 12.0037L20.1023 12.3407ZM19.6699 12.8184L20.0901 13.6332L19.6699 12.8184ZM18.9186 12.9581L18.8273 12.046L18.7975 12.049L18.7679 12.0539L18.9186 12.9581ZM18.9186 12.9581L19.0098 13.8702L19.0396 13.8672L19.0693 13.8623L18.9186 12.9581ZM17.5838 13.2283L17.028 12.4994L17.5838 13.2283ZM17.2312 14.0796L16.3227 14.202L17.2312 14.0796ZM17.9839 15.2144L17.2744 15.7949L17.9839 15.2144ZM18.4164 15.8444L17.5433 16.1234L18.4164 15.8444ZM18.3843 16.488L17.5433 16.1234L18.3843 16.488ZM17.8912 17.0718L18.5394 17.72L17.8912 17.0718ZM17.0721 17.8909L16.4239 17.2426V17.2427L17.0721 17.8909ZM16.4882 18.3841L16.8527 19.2251L16.4882 18.3841ZM15.8448 18.4162L15.5658 19.2893L15.8448 18.4162ZM15.2146 17.9835L15.7951 17.274L15.7872 17.2678L15.2146 17.9835ZM15.2146 17.9835L14.6341 18.693L14.6419 18.6993L15.2146 17.9835ZM14.0794 17.2306L14.2016 16.3221L14.0794 17.2306ZM13.2283 17.5831L13.9572 18.1391V18.1391L13.2283 17.5831ZM12.958 18.9184L12.0458 18.8272L12.958 18.9184ZM12.8182 19.6703L12.0036 19.25L12.8182 19.6703ZM12.3407 20.1024L12.0036 19.25L12.3407 20.1024ZM9.65903 20.1024L9.99609 19.25L9.65903 20.1024ZM9.18136 19.6702L9.99609 19.25L9.18136 19.6702ZM9.0417 18.9186L8.12959 19.0099L9.0417 18.9186ZM8.77135 17.5835L8.04255 18.1394L8.77135 17.5835ZM7.92036 17.231L7.79818 16.3225H7.79817L7.92036 17.231ZM6.78508 17.984L6.20461 17.2745L6.19009 17.2864L6.17607 17.2987L6.78508 17.984ZM6.78506 17.984L7.36553 18.6934L7.38004 18.6815L7.39407 18.6691L6.78506 17.984ZM6.15487 18.4165L6.4338 19.2897L6.15487 18.4165ZM5.5115 18.3844L5.14706 19.2256L5.5115 18.3844ZM4.92748 17.8913L5.57566 17.2431L4.92748 17.8913ZM4.1085 17.0722L3.46031 17.7205L4.1085 17.0722ZM3.6153 16.4883L4.45641 16.1239L3.6153 16.4883ZM3.58321 15.8449L4.45641 16.1239L3.58321 15.8449ZM4.01585 15.2147L4.72531 15.7951L4.01585 15.2147ZM4.76877 14.0794L5.67726 14.2017L4.76877 14.0794ZM4.41627 13.2285L4.97225 12.4996L4.41627 13.2285ZM3.08115 12.9581L2.98994 13.8702L3.08115 12.9581ZM2.32965 12.8184L2.74984 12.0037L2.32965 12.8184ZM1.89739 12.3408L1.04492 12.6778L1.89739 12.3408ZM1.89741 9.65906L1.045 9.32191L1.89741 9.65906ZM2.32957 9.18157L1.9093 8.3669L2.32957 9.18157ZM3.08126 9.04182V8.12515H3.03554L2.99005 8.1297L3.08126 9.04182ZM3.08127 9.04182V9.95845H3.12698L3.17248 9.95395L3.08127 9.04182ZM4.41673 8.77137L3.86064 8.04264H3.86063L4.41673 8.77137ZM4.76914 7.92057L5.67764 7.79849L4.76914 7.92057ZM4.01601 6.78496L4.72547 6.20449L4.01601 6.78496ZM3.58322 6.15451L4.45644 5.87569L3.58322 6.15451ZM3.61529 5.51136L2.77414 5.14703L3.61529 5.51136ZM4.10864 4.92713L4.75683 5.57531L4.10864 4.92713ZM4.92752 4.10825L4.27934 3.46007L4.92752 4.10825ZM5.51155 3.61505L5.14711 2.77393V2.77394L5.51155 3.61505ZM6.15492 3.58296L6.43385 2.70976L6.15492 3.58296ZM6.78519 4.01566L7.36565 3.3062L6.78519 4.01566ZM7.92024 4.76853L8.04259 3.86005L7.92024 4.76853ZM8.77149 4.41593L8.04259 3.86005L8.77149 4.41593ZM9.04172 3.08116L9.95383 3.17237L9.04172 3.08116ZM9.18136 2.32985L8.36661 1.90975L9.18136 2.32985ZM9.65912 1.89747L9.99609 2.74996L9.65912 1.89747ZM12.3406 1.89751L12.6777 1.04505L12.3406 1.89751ZM13.8701 2.99007C13.8514 2.80341 13.8334 2.61881 13.8072 2.46286C13.7795 2.2979 13.7341 2.10559 13.633 1.90958L12.0036 2.74996C11.9826 2.70916 11.987 2.69384 11.9992 2.76644C12.0129 2.84806 12.0248 2.96161 12.0458 3.17249L13.8701 2.99007ZM13.9571 3.86042C14.0151 3.93643 13.9967 3.97005 13.9645 3.79125C13.9339 3.62121 13.9092 3.38168 13.8701 2.99007L12.0458 3.17249C12.082 3.53334 12.1138 3.85817 12.1602 4.11595C12.205 4.36498 12.284 4.68993 12.4995 4.97237L13.9571 3.86042ZM13.9571 3.86042L12.4995 4.97237C12.899 5.49607 13.5487 5.7652 14.2016 5.67738L13.9571 3.86042ZM14.6341 3.30654C14.3294 3.55576 14.1427 3.7077 14.0008 3.80631C13.8517 3.90999 13.8624 3.87316 13.9571 3.86042L14.2016 5.67738C14.5536 5.63002 14.8393 5.45617 15.0471 5.31177C15.2622 5.16229 15.5143 4.9551 15.795 4.72546L14.6341 3.30654ZM15.5658 2.71019C15.3557 2.77731 15.1875 2.88112 15.0513 2.97818C14.9225 3.06994 14.7793 3.18775 14.6341 3.30654L15.795 4.72546C15.959 4.59126 16.0477 4.51933 16.1151 4.47132C16.1751 4.4286 16.1674 4.4426 16.1236 4.45657L15.5658 2.71019ZM16.8526 2.77437C16.4456 2.59799 15.9883 2.57519 15.5658 2.71019L16.1236 4.45657L16.8526 2.77437ZM17.7203 3.46046C17.5876 3.32783 17.4568 3.19634 17.3379 3.09223C17.2119 2.98209 17.055 2.86205 16.8526 2.77437L16.1236 4.45657C16.0816 4.43832 16.0753 4.42362 16.1307 4.47209C16.193 4.52658 16.2741 4.60697 16.4239 4.75682L17.7203 3.46046ZM18.5393 4.27948L17.7203 3.46046L16.4239 4.75683L17.243 5.57583L18.5393 4.27948ZM19.2254 5.14719C19.1377 4.94484 19.0176 4.78786 18.9076 4.66195C18.8034 4.54293 18.672 4.41212 18.5393 4.27948L17.2429 5.57583C17.3928 5.7257 17.4732 5.80676 17.5277 5.86905C17.5762 5.92445 17.5614 5.91823 17.5432 5.87611L19.2254 5.14719ZM19.2896 6.43399C19.4246 6.01143 19.4018 5.55425 19.2254 5.1472L17.5432 5.87611L19.2896 6.43399ZM18.6932 7.36569C18.812 7.22051 18.9298 7.07726 19.0216 6.94847C19.1187 6.81223 19.2224 6.64409 19.2896 6.434L17.5432 5.8761C17.5572 5.83237 17.5711 5.82471 17.5284 5.88467C17.4804 5.95206 17.4085 6.04072 17.2743 6.20475L18.6932 7.36569ZM18.1393 8.04268C18.1266 8.13742 18.0898 8.14816 18.1935 7.99897C18.292 7.85709 18.444 7.6703 18.6932 7.36569L17.2743 6.20475C17.0446 6.48543 16.8374 6.73761 16.6879 6.9527C16.5436 7.16048 16.3698 7.4462 16.3224 7.79827L18.1393 8.04268ZM18.1393 8.04268V8.04267L16.3224 7.79827C16.2346 8.45106 16.5037 9.10078 17.0274 9.5003L18.1393 8.04268ZM19.0097 8.12971C18.6181 8.09054 18.3785 8.06591 18.2085 8.03531C18.0297 8.00313 18.0633 7.98468 18.1393 8.04268L17.0274 9.5003C17.3098 9.71571 17.6348 9.79482 17.8838 9.83964C18.1416 9.88603 18.4665 9.91784 18.8273 9.95395L19.0097 8.12971ZM20.0902 8.36684C19.8943 8.26574 19.7019 8.22025 19.5369 8.19255C19.381 8.16636 19.1964 8.14838 19.0097 8.12971L18.8273 9.95395C19.0382 9.97504 19.1518 9.98686 19.2333 10.0006C19.3059 10.0128 19.2906 10.0172 19.2498 9.99621L20.0902 8.36684ZM20.9547 9.32209C20.7917 8.90957 20.4845 8.57018 20.0902 8.36684L19.2498 9.99621L20.9547 9.32209ZM21.0832 10.4208C21.0832 10.2333 21.0836 10.0478 21.0731 9.88997C21.062 9.72305 21.0359 9.52715 20.9547 9.32209L19.2498 9.99621C19.233 9.9535 19.2389 9.93874 19.2439 10.0122C19.2494 10.0948 19.2498 10.2089 19.2498 10.4208H21.0832ZM21.0832 11.5792V10.4208H19.2498V11.5792H21.0832ZM20.9548 12.6776C21.0359 12.4726 21.062 12.2768 21.0731 12.1099C21.0836 11.9522 21.0832 11.7668 21.0832 11.5792H19.2498C19.2498 11.791 19.2494 11.9052 19.2439 11.9878C19.2389 12.0612 19.233 12.0464 19.2498 12.0037L20.9548 12.6776ZM20.0901 13.6332C20.4845 13.4298 20.7917 13.0903 20.9548 12.6776L19.2498 12.0037L20.0901 13.6332ZM19.0098 13.8702C19.1964 13.8515 19.381 13.8336 19.5369 13.8073C19.7018 13.7797 19.8941 13.7342 20.0901 13.6332L19.2498 12.0037C19.2906 11.9827 19.3059 11.9872 19.2333 11.9993C19.1518 12.0131 19.0382 12.0249 18.8273 12.046L19.0098 13.8702ZM19.0693 13.8623L18.7679 12.0539L19.0693 13.8623ZM18.1397 13.9572C18.0637 14.0152 18.03 13.9967 18.2089 13.9646C18.3788 13.9339 18.6183 13.9094 19.0098 13.8702L18.8273 12.046C18.4666 12.0821 18.1419 12.1138 17.8842 12.1602C17.6352 12.205 17.3104 12.284 17.028 12.4994L18.1397 13.9572ZM18.1397 13.9572L17.028 12.4994C16.5041 12.8989 16.2347 13.5489 16.3227 14.202L18.1397 13.9572ZM18.6933 14.6339C18.4443 14.3295 18.2924 14.1428 18.1937 14.0009C18.0901 13.8518 18.1269 13.8625 18.1397 13.9572L16.3227 14.202C16.3701 14.5539 16.5439 14.8395 16.6883 15.0472C16.8377 15.2622 17.0449 15.5143 17.2744 15.7949L18.6933 14.6339ZM19.2895 15.5652C19.2224 15.3553 19.1187 15.1872 19.0216 15.051C18.9299 14.9223 18.8121 14.7791 18.6933 14.6339L17.2744 15.7949C17.4086 15.9589 17.4805 16.0475 17.5285 16.1149C17.5712 16.1748 17.5572 16.1671 17.5433 16.1234L19.2895 15.5652ZM19.2254 16.8525C19.4018 16.4453 19.4246 15.988 19.2895 15.5652L17.5433 16.1234L19.2254 16.8525ZM18.5394 17.72C18.6721 17.5873 18.8035 17.4566 18.9076 17.3376C19.0176 17.2118 19.1376 17.0548 19.2254 16.8525L17.5433 16.1234C17.5615 16.0813 17.5762 16.0751 17.5277 16.1305C17.4732 16.1927 17.3929 16.2737 17.2431 16.4236L18.5394 17.72ZM17.7203 18.5391L18.5394 17.72L17.2431 16.4236L16.4239 17.2426L17.7203 18.5391ZM16.8527 19.2251C17.055 19.1375 17.212 19.0174 17.3379 18.9073C17.4568 18.8032 17.5876 18.6717 17.7203 18.5391L16.4239 17.2427C16.2741 17.3925 16.193 17.4729 16.1308 17.5275C16.0753 17.5759 16.0816 17.5612 16.1237 17.5429L16.8527 19.2251ZM15.5658 19.2893C15.9883 19.4243 16.4456 19.4015 16.8527 19.2251L16.1237 17.5429L15.5658 19.2893ZM14.6341 18.693C14.7793 18.8118 14.9225 18.9296 15.0513 19.0213C15.1875 19.1184 15.3557 19.2222 15.5658 19.2893L16.1237 17.5429C16.1675 17.5569 16.1751 17.5709 16.1151 17.5282C16.0477 17.4802 15.9591 17.4083 15.7951 17.2741L14.6341 18.693ZM14.6419 18.6993L15.7872 17.2678V17.2677L14.6419 18.6993ZM13.9572 18.1391C13.8624 18.1263 13.8517 18.0896 14.0008 18.1932C14.1427 18.2918 14.3295 18.4438 14.6341 18.693L15.795 17.2741C15.5144 17.0444 15.2622 16.8372 15.0471 16.6877C14.8394 16.5433 14.5537 16.3695 14.2016 16.3221L13.9572 18.1391ZM13.9572 18.1391L14.2016 16.3221C13.5488 16.2343 12.8991 16.5034 12.4995 17.0271L13.9572 18.1391ZM13.8701 19.0096C13.9092 18.6179 13.9339 18.3784 13.9645 18.2083C13.9967 18.0294 14.0151 18.0631 13.9572 18.1391L12.4995 17.0271C12.2841 17.3096 12.205 17.6346 12.1602 17.8836C12.1138 18.1414 12.082 18.4663 12.0458 18.8272L13.8701 19.0096ZM13.6329 20.0905C13.7341 19.8945 13.7795 19.7021 13.8072 19.5371C13.8334 19.381 13.8514 19.1963 13.8701 19.0096L12.0458 18.8272C12.0248 19.0382 12.0129 19.1518 11.9992 19.2335C11.987 19.3061 11.9825 19.2908 12.0036 19.25L13.6329 20.0905ZM12.6779 20.9548C13.0903 20.7917 13.4296 20.4846 13.6329 20.0905L12.0036 19.25L12.6779 20.9548ZM11.5788 21.0833C11.7664 21.0833 11.952 21.0838 12.1098 21.0732C12.2768 21.062 12.4727 21.0359 12.6779 20.9548L12.0036 19.25C12.0463 19.2331 12.0611 19.2391 11.9876 19.244C11.905 19.2495 11.7908 19.25 11.5788 19.25V21.0833ZM10.4207 21.0833H11.5788V19.25H10.4207V21.0833ZM9.32197 20.9549C9.52703 21.036 9.72292 21.0621 9.88985 21.0732C10.0477 21.0838 10.2331 21.0833 10.4207 21.0833V19.25C10.2088 19.25 10.0946 19.2495 10.012 19.244C9.93861 19.2391 9.95337 19.2331 9.99609 19.25L9.32197 20.9549ZM8.36671 20.0904C8.57006 20.4846 8.90945 20.7918 9.32197 20.9549L9.99609 19.25L8.36671 20.0904ZM8.12959 19.0099C8.14825 19.1965 8.16624 19.3811 8.19243 19.5371C8.22013 19.7021 8.26562 19.8944 8.36671 20.0904L9.99609 19.25C10.0171 19.2908 10.0127 19.3061 10.0005 19.2335C9.98674 19.1519 9.97491 19.0383 9.95383 18.8274L8.12959 19.0099ZM8.04255 18.1394C7.98456 18.0634 8.00301 18.0298 8.03519 18.2086C8.06579 18.3787 8.09042 18.6182 8.12959 19.0099L9.95383 18.8274C9.91772 18.4666 9.88591 18.1417 9.83952 17.8839C9.7947 17.6349 9.71559 17.3099 9.50017 17.0275L8.04255 18.1394ZM8.04255 18.1394L9.50017 17.0275C9.10064 16.5038 8.45095 16.2347 7.79818 16.3225L8.04255 18.1394ZM7.36554 18.6934C7.67017 18.4441 7.85696 18.2921 7.99885 18.1936C8.14804 18.0899 8.13731 18.1267 8.04255 18.1394L7.79817 16.3225C7.44609 16.3698 7.16037 16.5437 6.95258 16.6881C6.73748 16.8376 6.48529 17.0448 6.20461 17.2745L7.36554 18.6934ZM7.39407 18.6691H7.39408L6.17607 17.2987L6.17606 17.2988L7.39407 18.6691ZM6.4338 19.2897C6.6439 19.2226 6.81205 19.1188 6.94829 19.0217C7.07709 18.93 7.22034 18.8122 7.36553 18.6934L6.2046 17.2745C6.04056 17.4087 5.9519 17.4806 5.8845 17.5286C5.82454 17.5714 5.8322 17.5573 5.87594 17.5434L6.4338 19.2897ZM5.14706 19.2256C5.5541 19.4019 6.01126 19.4248 6.4338 19.2897L5.87594 17.5434L5.14706 19.2256ZM4.2793 18.5395C4.41195 18.6721 4.54277 18.8035 4.6618 18.9077C4.78771 19.0179 4.94469 19.1379 5.14706 19.2256L5.87594 17.5434C5.91806 17.5616 5.92429 17.5763 5.86888 17.5278C5.80659 17.4734 5.72552 17.393 5.57566 17.2431L4.2793 18.5395ZM3.46031 17.7205L4.2793 18.5395L5.57566 17.2431L4.75667 16.4241L3.46031 17.7205ZM2.7742 16.8527C2.86188 17.0551 2.98192 17.212 3.09206 17.338C3.19618 17.457 3.32767 17.5879 3.46031 17.7205L4.75668 16.4241C4.60681 16.2743 4.52642 16.1932 4.47193 16.1309C4.42346 16.0755 4.43816 16.0817 4.45641 16.1239L2.7742 16.8527ZM2.71002 15.566C2.57503 15.9886 2.59783 16.4457 2.7742 16.8527L4.45641 16.1239L2.71002 15.566ZM3.30639 14.6343C3.1876 14.7794 3.06978 14.9227 2.97802 15.0514C2.88095 15.1877 2.77713 15.3559 2.71002 15.566L4.45641 16.1239C4.44244 16.1676 4.42843 16.1752 4.47115 16.1152C4.51917 16.0479 4.5911 15.9592 4.72531 15.7951L3.30639 14.6343ZM3.86029 13.9572C3.87303 13.8625 3.90986 13.8518 3.80618 14.0009C3.70757 14.1428 3.55562 14.3297 3.30639 14.6343L4.72531 15.7951C4.95495 15.5145 5.16216 15.2623 5.31164 15.0472C5.45604 14.8394 5.6299 14.5537 5.67726 14.2017L3.86029 13.9572ZM3.86029 13.9572L5.67726 14.2017C5.76507 13.5488 5.49594 12.8991 4.97225 12.4996L3.86029 13.9572ZM2.98994 13.8702C3.38156 13.9094 3.62108 13.934 3.79113 13.9646C3.96993 13.9968 3.9363 14.0152 3.86029 13.9572L4.97225 12.4996C4.68981 12.2841 4.36486 12.2051 4.11583 12.1603C3.85804 12.1139 3.53321 12.0821 3.17236 12.046L2.98994 13.8702ZM1.90947 13.6331C2.10547 13.7342 2.29777 13.7797 2.46274 13.8073C2.61869 13.8336 2.80329 13.8515 2.98994 13.8702L3.17237 12.046C2.96149 12.0249 2.84793 12.0131 2.76632 11.9993C2.69372 11.9871 2.70904 11.9827 2.74984 12.0037L1.90947 13.6331ZM1.04492 12.6778C1.20803 13.0903 1.51519 13.4298 1.90947 13.6331L2.74984 12.0037L1.04492 12.6778ZM0.916507 11.5791C0.916507 11.7667 0.916033 11.9521 0.926572 12.11C0.937719 12.2769 0.963835 12.4727 1.04492 12.6778L2.74984 12.0037C2.76672 12.0464 2.76073 12.0612 2.75583 11.9878C2.75032 11.9052 2.74984 11.791 2.74984 11.5791H0.916507ZM0.916507 10.4209V11.5791H2.74984V10.4209H0.916507ZM1.045 9.32191C0.963862 9.52706 0.937728 9.72305 0.926572 9.88997C0.916033 10.0478 0.916507 10.2334 0.916507 10.4209H2.74984C2.74984 10.209 2.75032 10.0948 2.75584 10.0122C2.76074 9.93874 2.76673 9.9535 2.74984 9.99621L1.045 9.32191ZM1.9093 8.3669C1.51516 8.57024 1.2081 8.90954 1.045 9.32191L2.74984 9.99621L1.9093 8.3669ZM2.99005 8.1297C2.80335 8.14837 2.6187 8.16636 2.46271 8.19255C2.2977 8.22026 2.10535 8.26577 1.9093 8.3669L2.74984 9.99621C2.70903 10.0173 2.69371 10.0128 2.76632 10.0006C2.84796 9.98686 2.96154 9.97504 3.17247 9.95395L2.99005 8.1297ZM3.08126 8.12515V9.95845V8.12515ZM3.08127 8.12515H3.08126V9.95845H3.08127V8.12515ZM3.86063 8.04264C3.93666 7.98463 3.9703 8.00309 3.79145 8.03528C3.62136 8.0659 3.38178 8.09053 2.99005 8.1297L3.17248 9.95395C3.53343 9.91784 3.85834 9.88603 4.11619 9.83964C4.36529 9.79482 4.69033 9.71562 4.97281 9.50011L3.86063 8.04264ZM3.86063 8.04264H3.86064L4.97281 9.50011C5.49629 9.10064 5.76533 8.45112 5.67764 7.79849L3.86063 8.04264ZM3.30655 7.36543C3.55586 7.67013 3.70786 7.85699 3.8065 7.99892C3.91021 8.14817 3.87337 8.13743 3.86063 8.04264L5.67764 7.79849C5.63032 7.44632 5.45642 7.16051 5.31198 6.95268C5.16246 6.73752 4.95519 6.48526 4.72547 6.20449L3.30655 7.36543ZM2.70998 6.43333C2.77709 6.64351 2.88095 6.81173 2.97805 6.94802C3.06985 7.07688 3.18771 7.22018 3.30655 7.36543L4.72547 6.20449C4.5912 6.04039 4.51925 5.95169 4.4712 5.88426C4.42847 5.82427 4.44247 5.83193 4.45644 5.87569L2.70998 6.43333ZM2.77414 5.14703C2.59789 5.55393 2.57511 6.01091 2.70998 6.43333L4.45644 5.87569L2.77414 5.14703ZM3.46047 4.27894C3.32777 4.41164 3.19624 4.5425 3.09208 4.66157C2.9819 4.78753 2.86183 4.94457 2.77414 5.14703L4.45644 5.87569C4.43819 5.91782 4.42349 5.92406 4.47198 5.86864C4.52649 5.80632 4.60691 5.72522 4.75683 5.57531L3.46047 4.27894ZM4.27934 3.46007L3.46047 4.27894L4.75683 5.57531L5.5757 4.75644L4.27934 3.46007ZM4.27934 3.46007L5.5757 4.75644V4.75643L4.27934 3.46007ZM5.14711 2.77394C4.94473 2.86162 4.78775 2.98166 4.66184 3.09181C4.54281 3.19593 4.41199 3.32742 4.27934 3.46007L5.5757 4.75643C5.72557 4.60656 5.80664 4.52617 5.86893 4.47168C5.92434 4.42321 5.91811 4.4379 5.87598 4.45615L5.14711 2.77394ZM6.43385 2.70976C6.01129 2.57478 5.55413 2.59758 5.14711 2.77393L5.87598 4.45615H5.87598L6.43385 2.70976ZM7.36565 3.3062C7.22044 3.18739 7.07718 3.06956 6.94837 2.97778C6.81212 2.88072 6.64396 2.77688 6.43385 2.70976L5.87598 4.45615C5.83224 4.44218 5.82458 4.42818 5.88456 4.47091C5.95198 4.51895 6.04066 4.59089 6.20472 4.72512L7.36565 3.3062ZM8.04259 3.86005C8.13734 3.87281 8.14806 3.90963 7.99887 3.80594C7.85699 3.70734 7.67022 3.55539 7.36565 3.3062L6.20472 4.72512C6.48537 4.95474 6.7375 5.16191 6.95255 5.31138C7.16027 5.45574 7.44592 5.62959 7.7979 5.67699L8.04259 3.86005ZM8.04259 3.86005L7.7979 5.67699C8.45088 5.76492 9.10084 5.49571 9.50036 4.9718L8.04259 3.86005ZM8.1296 2.98995C8.09045 3.38145 8.06583 3.62091 8.03524 3.79091C8.00307 3.96967 7.98463 3.93606 8.04259 3.86005L9.50036 4.9718C9.71577 4.68941 9.79479 4.36454 9.83961 4.11558C9.886 3.85785 9.91781 3.53312 9.95383 3.17237L8.1296 2.98995ZM8.36661 1.90975C8.26557 2.10572 8.2201 2.29797 8.19242 2.46289C8.16624 2.61881 8.14826 2.80335 8.1296 2.98995L9.95383 3.17237C9.97491 2.96155 9.98674 2.84803 10.0005 2.76644C10.0126 2.69386 10.0171 2.70917 9.99609 2.74996L8.36661 1.90975ZM9.32216 1.04498C8.90949 1.20809 8.56998 1.51535 8.36661 1.90975L9.99609 2.74996L9.32216 1.04498ZM10.4206 0.916629C10.233 0.916629 10.0476 0.916155 9.88994 0.926685C9.72301 0.937832 9.52722 0.963938 9.32216 1.04498L9.99609 2.74996C9.95337 2.76683 9.93861 2.76085 10.012 2.75595C10.0946 2.75044 10.2088 2.74996 10.4206 2.74996V0.916629ZM11.579 0.916629H10.4206V2.74996H11.579V0.916629ZM12.6777 1.04505C12.4726 0.963957 12.2768 0.937841 12.1098 0.926694C11.952 0.916155 11.7665 0.916629 11.579 0.916629V2.74996C11.7909 2.74996 11.905 2.75044 11.9876 2.75595C12.0611 2.76085 12.0463 2.76684 12.0036 2.74996L12.6777 1.04505ZM13.633 1.90958C13.4296 1.51532 13.0902 1.20816 12.6777 1.04505L12.0036 2.74996L13.633 1.90958ZM13.7498 11C13.7498 12.5188 12.5187 13.75 10.9998 13.75V15.5833C13.5311 15.5833 15.5832 13.5312 15.5832 11H13.7498ZM10.9998 8.24996C12.5187 8.24996 13.7498 9.48114 13.7498 11H15.5832C15.5832 8.46866 13.5311 6.41663 10.9998 6.41663V8.24996ZM8.24984 11C8.24984 9.48114 9.48102 8.24996 10.9998 8.24996V6.41663C8.46854 6.41663 6.41651 8.46866 6.41651 11H8.24984ZM10.9998 13.75C9.48102 13.75 8.24984 12.5188 8.24984 11H6.41651C6.41651 13.5312 8.46854 15.5833 10.9998 15.5833V13.75Z" fill="#33363F"/>
</svg>
