<svg width="22" height="15" viewBox="0 0 22 15" fill="none" xmlns="http://www.w3.org/2000/svg">
<path d="M17.2859 15C18.5877 15 19.643 13.9396 19.643 12.6316C19.643 11.3236 18.5877 10.2632 17.2859 10.2632C15.984 10.2632 14.9287 11.3236 14.9287 12.6316C14.9287 13.9396 15.984 15 17.2859 15Z" fill="#3E4958"/>
<path d="M4.71408 15C6.01589 15 7.07122 13.9396 7.07122 12.6316C7.07122 11.3236 6.01589 10.2632 4.71408 10.2632C3.41226 10.2632 2.35693 11.3236 2.35693 12.6316C2.35693 13.9396 3.41226 15 4.71408 15Z" fill="#3E4958"/>
<path d="M21.8429 7.42105L18.7 3.47368C18.5429 3.23684 18.3071 3.15789 18.0714 3.15789H14.1429V0.789474C14.1429 0.315789 13.8286 0 13.3571 0H0.785714C0.314286 0 0 0.315789 0 0.789474V12.6316C0 13.1053 0.314286 13.4211 0.785714 13.4211H0.864286C0.785714 13.1842 0.785714 12.8684 0.785714 12.6316C0.785714 10.4211 2.51429 8.68421 4.71429 8.68421C6.91429 8.68421 8.64286 10.4211 8.64286 12.6316C8.64286 12.8684 8.64286 13.1842 8.56429 13.4211H13.3571H13.4357C13.3571 13.1842 13.3571 12.8684 13.3571 12.6316C13.3571 10.4211 15.0857 8.68421 17.2857 8.68421C19.4857 8.68421 21.2143 10.4211 21.2143 12.6316C21.2143 12.8684 21.2143 13.1842 21.1357 13.4211H21.2143C21.6857 13.4211 22 13.1053 22 12.6316V7.89474C22 7.73684 21.9214 7.57895 21.8429 7.42105Z" fill="#3E4958"/>
</svg>
