<svg width="20" height="20" viewBox="0 0 20 20" fill="none" xmlns="http://www.w3.org/2000/svg">
<g clip-path="url(#clip0_1_1034)">
<path d="M11.5218 18.6956C10.4429 18.6956 9.56523 17.818 9.56523 16.7391C9.56523 16.3788 9.27309 16.0869 8.91305 16.0869H0.652187C0.292148 16.0869 0 16.3788 0 16.7391C0 18.5372 1.46273 20 3.26086 20H11.5217C11.8818 20 12.1739 19.708 12.1739 19.3478C12.1739 18.9875 11.8818 18.6956 11.5218 18.6956Z" fill="#3E4958"/>
<path d="M19.9312 8.18659L18.6268 5.57788C18.5164 5.35686 18.2906 5.21741 18.0434 5.21741C17.7963 5.21741 17.5704 5.3569 17.46 5.57788L16.1557 8.18659C16.1107 8.27725 16.0869 8.37702 16.0869 8.47827V9.13045H20V8.47827C20 8.37702 19.9762 8.27725 19.9312 8.18659Z" fill="#3E4958"/>
<path d="M20 10.4348H16.0869V16.087H20V10.4348Z" fill="#3E4958"/>
<path d="M16.0869 17.3912V18.0434C16.0869 19.1223 16.9646 19.9999 18.0434 19.9999C19.1223 19.9999 20 19.1223 20 18.0434V17.3912H16.0869Z" fill="#3E4958"/>
<path d="M16.7393 0H5.86975C4.07162 0 2.60889 1.46273 2.60889 3.26086V14.7826H8.91322C9.99209 14.7826 10.8697 15.6602 10.8697 16.7391C10.8697 17.0987 11.1623 17.3913 11.5219 17.3913C12.5988 17.3913 13.4747 18.2659 13.4779 19.3421C14.2685 18.7465 14.7828 17.803 14.7828 16.7391V3.91305H19.348C19.7081 3.91305 20.0002 3.62113 20.0002 3.26086C20.0002 1.46273 18.5374 0 16.7393 0ZM5.86975 13.0435C5.50959 13.0435 5.21756 12.7515 5.21756 12.3913C5.21756 12.0311 5.50955 11.7391 5.86975 11.7391C6.22994 11.7391 6.52193 12.0311 6.52193 12.3913C6.52193 12.7515 6.2299 13.0435 5.86975 13.0435ZM5.86975 10.4348C5.50959 10.4348 5.21756 10.1428 5.21756 9.78258C5.21756 9.42242 5.50955 9.13039 5.86975 9.13039C6.22994 9.13039 6.52193 9.42238 6.52193 9.78258C6.52193 10.1428 6.2299 10.4348 5.86975 10.4348ZM5.86975 7.82609C5.50959 7.82609 5.21756 7.5341 5.21756 7.17391C5.21756 6.81375 5.50955 6.52172 5.86975 6.52172C6.22994 6.52172 6.52193 6.81371 6.52193 7.17391C6.52193 7.5341 6.2299 7.82609 5.86975 7.82609ZM5.86975 5.21738C5.50959 5.21738 5.21756 4.92539 5.21756 4.5652C5.21756 4.205 5.50955 3.91301 5.86975 3.91301C6.22994 3.91301 6.52193 4.205 6.52193 4.5652C6.52193 4.92539 6.2299 5.21738 5.86975 5.21738ZM11.5219 13.0435H8.47846C8.11842 13.0435 7.82627 12.7516 7.82627 12.3913C7.82627 12.031 8.11842 11.7391 8.47846 11.7391H11.5219C11.882 11.7391 12.1741 12.031 12.1741 12.3913C12.1741 12.7516 11.882 13.0435 11.5219 13.0435ZM11.5219 10.4348H8.47846C8.11842 10.4348 7.82627 10.1429 7.82627 9.78258C7.82627 9.42231 8.11842 9.13039 8.47846 9.13039H11.5219C11.882 9.13039 12.1741 9.42231 12.1741 9.78258C12.1741 10.1429 11.882 10.4348 11.5219 10.4348ZM11.5219 7.82609H8.47846C8.11842 7.82609 7.82627 7.53418 7.82627 7.17391C7.82627 6.81363 8.11842 6.52172 8.47846 6.52172H11.5219C11.882 6.52172 12.1741 6.81363 12.1741 7.17391C12.1741 7.53418 11.882 7.82609 11.5219 7.82609ZM11.5219 5.21738H8.47846C8.11842 5.21738 7.82627 4.92547 7.82627 4.5652C7.82627 4.20492 8.11842 3.91301 8.47846 3.91301H11.5219C11.882 3.91301 12.1741 4.20492 12.1741 4.5652C12.1741 4.92547 11.882 5.21738 11.5219 5.21738ZM14.8944 2.60871C15.1637 1.84953 15.8888 1.30437 16.7393 1.30437C17.5898 1.30437 18.315 1.84953 18.5842 2.60871H14.8944Z" fill="#3E4958"/>
</g>
<defs>
<clipPath id="clip0_1_1034">
<rect width="20" height="20" fill="white"/>
</clipPath>
</defs>
</svg>
