<svg width="60" height="32" viewBox="0 0 60 32" fill="none" xmlns="http://www.w3.org/2000/svg">
<path d="M55.457 12.7451C55.7777 12.7451 56.0853 12.8257 56.3799 12.9868C56.6745 13.1463 56.9056 13.3758 57.0732 13.6753C57.2425 13.9748 57.3271 14.2881 57.3271 14.6152C57.3271 14.9408 57.2441 15.2516 57.0781 15.5479C56.9137 15.8424 56.6834 16.0728 56.3872 16.2388C56.0926 16.4032 55.7826 16.4854 55.457 16.4854C55.1315 16.4854 54.8206 16.4032 54.5244 16.2388C54.2298 16.0728 53.9995 15.8424 53.8335 15.5479C53.6691 15.2516 53.5869 14.9408 53.5869 14.6152C53.5869 14.2881 53.6707 13.9748 53.8384 13.6753C54.0076 13.3758 54.2396 13.1463 54.5342 12.9868C54.8288 12.8257 55.1364 12.7451 55.457 12.7451ZM55.4595 13.1113C55.2023 13.1113 54.9557 13.1756 54.7197 13.3042C54.4837 13.4328 54.2974 13.6175 54.1606 13.8584C54.0256 14.0993 53.958 14.3516 53.958 14.6152C53.958 14.8773 54.0239 15.1271 54.1558 15.3647C54.2892 15.6024 54.4748 15.7879 54.7124 15.9214C54.95 16.0549 55.1991 16.1216 55.4595 16.1216C55.7215 16.1216 55.9705 16.0549 56.2065 15.9214C56.4442 15.7879 56.6297 15.6024 56.7632 15.3647C56.8966 15.1271 56.9634 14.8773 56.9634 14.6152C56.9634 14.3516 56.895 14.0993 56.7583 13.8584C56.6232 13.6175 56.4368 13.4328 56.1992 13.3042C55.9632 13.1756 55.7166 13.1113 55.4595 13.1113ZM54.6123 15.6162V13.6313H55.0151C55.3927 13.6313 55.6043 13.633 55.6499 13.6362C55.7834 13.6476 55.8867 13.6745 55.96 13.7168C56.0348 13.7575 56.0967 13.821 56.1455 13.9072C56.196 13.9919 56.2212 14.0863 56.2212 14.1904C56.2212 14.3337 56.174 14.4565 56.0796 14.5591C55.9868 14.66 55.8558 14.7227 55.6865 14.7471C55.7467 14.7699 55.7931 14.7951 55.8257 14.8228C55.8582 14.8488 55.903 14.8993 55.96 14.9741C55.9746 14.9937 56.0234 15.0742 56.1064 15.2158L56.3408 15.6162H55.8428L55.6768 15.2939C55.5645 15.0775 55.4717 14.9416 55.3984 14.8862C55.3252 14.8293 55.2324 14.8008 55.1201 14.8008H55.0151V15.6162H54.6123ZM55.0151 14.4883H55.1787C55.4115 14.4883 55.5555 14.4793 55.6108 14.4614C55.6678 14.4435 55.7126 14.4126 55.7451 14.3687C55.7777 14.3231 55.7939 14.2718 55.7939 14.2148C55.7939 14.1595 55.7777 14.1107 55.7451 14.0684C55.7142 14.0244 55.6694 13.9935 55.6108 13.9756C55.5522 13.9561 55.4082 13.9463 55.1787 13.9463H55.0151V14.4883Z" fill="black"/>
<path d="M56.3799 12.9868L56.3439 13.0526L56.3442 13.0528L56.3799 12.9868ZM57.0732 13.6753L57.0078 13.7119L57.008 13.7122L57.0732 13.6753ZM57.0781 15.5479L57.0127 15.5112L57.0126 15.5113L57.0781 15.5479ZM56.3872 16.2388L56.4238 16.3043L56.4239 16.3042L56.3872 16.2388ZM54.5244 16.2388L54.4876 16.3041L54.488 16.3043L54.5244 16.2388ZM53.8335 15.5479L53.7679 15.5842L53.7682 15.5847L53.8335 15.5479ZM53.8384 13.6753L53.7731 13.6384L53.7729 13.6387L53.8384 13.6753ZM54.5342 12.9868L54.5699 13.0528L54.5702 13.0526L54.5342 12.9868ZM54.1606 13.8584L54.0954 13.8214L54.0952 13.8217L54.1606 13.8584ZM54.1558 15.3647L54.0902 15.4011L54.0904 15.4015L54.1558 15.3647ZM54.7124 15.9214L54.6757 15.9868L54.7124 15.9214ZM56.2065 15.9214L56.1698 15.856L56.1696 15.8561L56.2065 15.9214ZM56.7583 13.8584L56.6929 13.8951L56.6931 13.8954L56.7583 13.8584ZM56.1992 13.3042L56.1633 13.3701L56.1635 13.3702L56.1992 13.3042ZM54.6123 15.6162H54.5373V15.6912H54.6123V15.6162ZM54.6123 13.6313V13.5563H54.5373V13.6313H54.6123ZM55.6499 13.6362L55.6563 13.5615L55.6552 13.5614L55.6499 13.6362ZM55.96 13.7168L55.9224 13.7818L55.9241 13.7827L55.96 13.7168ZM56.1455 13.9072L56.0802 13.9442L56.0811 13.9456L56.1455 13.9072ZM56.0796 14.5591L56.0244 14.5083L56.0244 14.5083L56.0796 14.5591ZM55.6865 14.7471L55.6758 14.6728L55.3881 14.7143L55.66 14.8172L55.6865 14.7471ZM55.8257 14.8228L55.7771 14.8799L55.7788 14.8813L55.8257 14.8228ZM55.96 14.9741L56.02 14.9291L56.0196 14.9287L55.96 14.9741ZM56.1064 15.2158L56.1712 15.1779L56.1711 15.1779L56.1064 15.2158ZM56.3408 15.6162V15.6912H56.4716L56.4055 15.5783L56.3408 15.6162ZM55.8428 15.6162L55.7761 15.6506L55.797 15.6912H55.8428V15.6162ZM55.6768 15.2939L55.7434 15.2596L55.7433 15.2594L55.6768 15.2939ZM55.3984 14.8862L55.3524 14.9454L55.3532 14.9461L55.3984 14.8862ZM55.0151 14.8008V14.7258H54.9401V14.8008H55.0151ZM55.0151 15.6162V15.6912H55.0901V15.6162H55.0151ZM55.0151 14.4883H54.9401V14.5633H55.0151V14.4883ZM55.6108 14.4614L55.5884 14.3899L55.5878 14.3901L55.6108 14.4614ZM55.7451 14.3687L55.8054 14.4133L55.8061 14.4122L55.7451 14.3687ZM55.7451 14.0684L55.6837 14.1116L55.6857 14.1141L55.7451 14.0684ZM55.6108 13.9756L55.5871 14.0468L55.5889 14.0473L55.6108 13.9756ZM55.0151 13.9463V13.8713H54.9401V13.9463H55.0151ZM55.457 12.8201C55.7645 12.8201 56.0598 12.8972 56.3439 13.0526L56.4159 12.921C56.1108 12.7541 55.7908 12.6701 55.457 12.6701V12.8201ZM56.3442 13.0528C56.626 13.2053 56.8469 13.4245 57.0078 13.7119L57.1387 13.6387C56.9643 13.3271 56.723 13.0873 56.4156 12.9209L56.3442 13.0528ZM57.008 13.7122C57.1712 14.001 57.2521 14.3017 57.2521 14.6152H57.4021C57.4021 14.2745 57.3138 13.9485 57.1385 13.6384L57.008 13.7122ZM57.2521 14.6152C57.2521 14.9274 57.1727 15.2257 57.0127 15.5112L57.1436 15.5845C57.3156 15.2776 57.4021 14.9542 57.4021 14.6152H57.2521ZM57.0126 15.5113C56.855 15.7937 56.6348 16.0141 56.3505 16.1733L56.4239 16.3042C56.7321 16.1314 56.9724 15.8912 57.1436 15.5844L57.0126 15.5113ZM56.3507 16.1733C56.0668 16.3317 55.7693 16.4104 55.457 16.4104V16.5604C55.7958 16.5604 56.1184 16.4746 56.4238 16.3043L56.3507 16.1733ZM55.457 16.4104C55.1448 16.4104 54.8464 16.3317 54.5608 16.1732L54.488 16.3043C54.7949 16.4747 55.1182 16.5604 55.457 16.5604V16.4104ZM54.5612 16.1734C54.2786 16.0141 54.0581 15.7937 53.8988 15.511L53.7682 15.5847C53.9409 15.8912 54.1811 16.1314 54.4876 16.3041L54.5612 16.1734ZM53.8991 15.5115C53.7406 15.2259 53.6619 14.9275 53.6619 14.6152H53.5119C53.5119 14.954 53.5976 15.2774 53.7679 15.5842L53.8991 15.5115ZM53.6619 14.6152C53.6619 14.3016 53.7421 14.0008 53.9038 13.7119L53.7729 13.6387C53.5993 13.9488 53.5119 14.2746 53.5119 14.6152H53.6619ZM53.9037 13.7122C54.0662 13.4246 54.288 13.2054 54.5699 13.0528L54.4985 12.9209C54.1911 13.0873 53.9491 13.327 53.7731 13.6384L53.9037 13.7122ZM54.5702 13.0526C54.8543 12.8972 55.1496 12.8201 55.457 12.8201V12.6701C55.1232 12.6701 54.8033 12.7541 54.4982 12.921L54.5702 13.0526ZM55.4595 13.0363C55.1892 13.0363 54.9303 13.104 54.6838 13.2383L54.7556 13.3701C54.9811 13.2472 55.2154 13.1863 55.4595 13.1863V13.0363ZM54.6838 13.2383C54.4352 13.3738 54.2388 13.5687 54.0954 13.8214L54.2259 13.8954C54.3559 13.6663 54.5323 13.4917 54.7556 13.3701L54.6838 13.2383ZM54.0952 13.8217C53.9542 14.0733 53.883 14.3381 53.883 14.6152H54.033C54.033 14.365 54.0969 14.1253 54.2261 13.8951L54.0952 13.8217ZM53.883 14.6152C53.883 14.8905 53.9524 15.1528 54.0902 15.4011L54.2213 15.3284C54.0954 15.1014 54.033 14.8641 54.033 14.6152H53.883ZM54.0904 15.4015C54.2306 15.6511 54.426 15.8466 54.6757 15.9868L54.7491 15.856C54.5235 15.7293 54.3479 15.5536 54.2212 15.328L54.0904 15.4015ZM54.6757 15.9868C54.924 16.1262 55.1856 16.1966 55.4595 16.1966V16.0466C55.2125 16.0466 54.9761 15.9835 54.7491 15.856L54.6757 15.9868ZM55.4595 16.1966C55.7349 16.1966 55.9966 16.1263 56.2435 15.9867L56.1696 15.8561C55.9445 15.9834 55.7081 16.0466 55.4595 16.0466V16.1966ZM56.2433 15.9868C56.4929 15.8466 56.6884 15.6511 56.8286 15.4015L56.6978 15.328C56.5711 15.5536 56.3954 15.7293 56.1698 15.856L56.2433 15.9868ZM56.8286 15.4015C56.9681 15.1531 57.0384 14.8907 57.0384 14.6152H56.8884C56.8884 14.8639 56.8252 15.1011 56.6978 15.328L56.8286 15.4015ZM57.0384 14.6152C57.0384 14.3379 56.9663 14.073 56.8235 13.8214L56.6931 13.8954C56.8237 14.1256 56.8884 14.3652 56.8884 14.6152H57.0384ZM56.8237 13.8217C56.6818 13.5687 56.4853 13.3737 56.2349 13.2382L56.1635 13.3702C56.3884 13.4918 56.5646 13.6663 56.6929 13.8951L56.8237 13.8217ZM56.2351 13.2383C55.9886 13.104 55.7297 13.0363 55.4595 13.0363V13.1863C55.7035 13.1863 55.9378 13.2472 56.1633 13.3701L56.2351 13.2383ZM54.6873 15.6162V13.6313H54.5373V15.6162H54.6873ZM54.6123 13.7063H55.0151V13.5563H54.6123V13.7063ZM55.0151 13.7063C55.3949 13.7063 55.6025 13.708 55.6446 13.711L55.6552 13.5614C55.6062 13.5579 55.3906 13.5563 55.0151 13.5563V13.7063ZM55.6435 13.711C55.7717 13.7219 55.8627 13.7472 55.9224 13.7817L55.9975 13.6519C55.9107 13.6017 55.795 13.5733 55.6563 13.5615L55.6435 13.711ZM55.9241 13.7827C55.9848 13.8156 56.0372 13.8681 56.0802 13.9442L56.2108 13.8703C56.1562 13.7738 56.0849 13.6993 55.9958 13.6509L55.9241 13.7827ZM56.0811 13.9456C56.1242 14.018 56.1462 14.099 56.1462 14.1904H56.2962C56.2962 14.0735 56.2677 13.9657 56.2099 13.8688L56.0811 13.9456ZM56.1462 14.1904C56.1462 14.3154 56.1057 14.42 56.0244 14.5083L56.1348 14.6099C56.2423 14.4931 56.2962 14.3519 56.2962 14.1904H56.1462ZM56.0244 14.5083C55.946 14.5936 55.8323 14.6503 55.6758 14.6728L55.6972 14.8213C55.8793 14.795 56.0277 14.7264 56.1348 14.6098L56.0244 14.5083ZM55.66 14.8172C55.7158 14.8383 55.7535 14.8599 55.7771 14.8799L55.8743 14.7656C55.8327 14.7303 55.7777 14.7014 55.7131 14.6769L55.66 14.8172ZM55.7788 14.8813C55.8036 14.9011 55.8436 14.945 55.9003 15.0195L56.0196 14.9287C55.9624 14.8535 55.9129 14.7965 55.8725 14.7642L55.7788 14.8813ZM55.9 15.0191C55.9113 15.0343 55.9573 15.1096 56.0417 15.2537L56.1711 15.1779C56.0896 15.0388 56.0379 14.953 56.02 14.9291L55.9 15.0191ZM56.0417 15.2537L56.2761 15.6541L56.4055 15.5783L56.1712 15.1779L56.0417 15.2537ZM56.3408 15.5412H55.8428V15.6912H56.3408V15.5412ZM55.9094 15.5819L55.7434 15.2596L55.6101 15.3283L55.7761 15.6506L55.9094 15.5819ZM55.7433 15.2594C55.6864 15.1496 55.6336 15.0587 55.5849 14.9874C55.5369 14.9171 55.49 14.8614 55.4437 14.8264L55.3532 14.9461C55.3801 14.9664 55.4162 15.0063 55.461 15.0719C55.5051 15.1365 55.5548 15.2218 55.6102 15.3285L55.7433 15.2594ZM55.4445 14.827C55.3555 14.7578 55.2455 14.7258 55.1201 14.7258V14.8758C55.2194 14.8758 55.2949 14.9007 55.3524 14.9454L55.4445 14.827ZM55.1201 14.7258H55.0151V14.8758H55.1201V14.7258ZM54.9401 14.8008V15.6162H55.0901V14.8008H54.9401ZM55.0151 15.5412H54.6123V15.6912H55.0151V15.5412ZM55.0151 14.5633H55.1787V14.4133H55.0151V14.5633ZM55.1787 14.5633C55.2958 14.5633 55.3917 14.561 55.466 14.5564C55.5377 14.552 55.5962 14.545 55.6339 14.5328L55.5878 14.3901C55.5701 14.3958 55.5289 14.4022 55.4567 14.4067C55.3868 14.4111 55.2943 14.4133 55.1787 14.4133V14.5633ZM55.6333 14.533C55.7039 14.5108 55.7625 14.4712 55.8054 14.4133L55.6849 14.324C55.6626 14.354 55.6317 14.3763 55.5884 14.3899L55.6333 14.533ZM55.8061 14.4122C55.848 14.3537 55.8689 14.2872 55.8689 14.2148H55.7189C55.7189 14.2565 55.7074 14.2924 55.6841 14.3251L55.8061 14.4122ZM55.8689 14.2148C55.8689 14.1436 55.8476 14.0786 55.8046 14.0226L55.6857 14.1141C55.7077 14.1428 55.7189 14.1754 55.7189 14.2148H55.8689ZM55.8065 14.0252C55.7646 13.9657 55.705 13.9259 55.6328 13.9039L55.5889 14.0473C55.6339 14.0611 55.6638 14.0831 55.6838 14.1115L55.8065 14.0252ZM55.6346 13.9044C55.5953 13.8914 55.5361 13.8837 55.4639 13.8788C55.3895 13.8737 55.2943 13.8713 55.1787 13.8713V14.0213C55.2926 14.0213 55.3841 14.0237 55.4538 14.0284C55.5256 14.0333 55.5678 14.0403 55.5871 14.0467L55.6346 13.9044ZM55.1787 13.8713H55.0151V14.0213H55.1787V13.8713ZM54.9401 13.9463V14.4883H55.0901V13.9463H54.9401Z" fill="black"/>
<path d="M7.21777 28H5.79834L2.44922 21.0234V28H1.15967V13.481H2.44922V20.0029L5.49219 13.481H6.89307V13.5645L3.60889 20.4761L7.21777 28ZM9.62988 16.9971H8.37744V15.4385H9.62988V16.9971ZM9.61133 28H8.396V18.9731H9.61133V28ZM14.9644 28H13.2109C12.5182 28 12.1719 27.6506 12.1719 26.9517V20.0586H11.0864V18.9731H12.1719V16.1621H13.3872V18.9731H14.9644V20.0586H13.3872V26.9146H14.9644V28ZM21.5884 26.9517C21.5884 27.6506 21.242 28 20.5493 28H17.5806C16.8879 28 16.5415 27.6506 16.5415 26.9517V20.0215C16.5415 19.3226 16.8879 18.9731 17.5806 18.9731H20.5493C21.242 18.9731 21.5884 19.3226 21.5884 20.0215V23.2686L21.1709 23.7046H17.7383V26.9702H20.3916V25.3188H21.5884V26.9517ZM20.3916 22.7212V20.0029H17.7383V22.7212H20.3916ZM28.4907 26.9517C28.4907 27.6506 28.1413 28 27.4424 28H24.6128C23.9139 28 23.5645 27.6506 23.5645 26.9517V24.9014H24.7798V26.9331H27.2754V25.1333L24.0469 22.4893C23.7376 22.2419 23.583 21.9202 23.583 21.5244V20.0215C23.583 19.3226 23.9325 18.9731 24.6313 18.9731H27.4238C28.1227 18.9731 28.4722 19.3226 28.4722 20.0215V21.8213H27.2754V20.04H24.7798V21.6172L28.0361 24.2612C28.3392 24.5024 28.4907 24.8302 28.4907 25.2446V26.9517ZM36.4229 26.9702C36.4229 27.2733 36.3239 27.5207 36.126 27.7124C35.9281 27.9041 35.6776 28 35.3745 28H31.6357C31.3327 28 31.0853 27.9041 30.8936 27.7124C30.7018 27.5207 30.606 27.2733 30.606 26.9702V14.5107C30.606 14.2077 30.7018 13.9603 30.8936 13.7686C31.0853 13.5768 31.3327 13.481 31.6357 13.481H35.3745C35.6776 13.481 35.9281 13.5768 36.126 13.7686C36.3239 13.9603 36.4229 14.2077 36.4229 14.5107V17.8877H35.124V14.6221H31.8955V26.8589H35.124V23.2871H36.4229V26.9702ZM39.8184 28H38.603V13.481H39.8184V28ZM47.0918 28H45.8765V27.7495C45.3817 27.8175 44.89 27.8825 44.4014 27.9443C43.8076 28.0186 43.3159 28.0557 42.9263 28.0557C42.2583 28.0557 41.9243 27.7217 41.9243 27.0537V18.9731H43.1396V26.896L45.8765 26.8218V18.9731H47.0918V28ZM54.291 26.061C54.291 26.6177 54.1086 27.0815 53.7437 27.4526C53.3787 27.8175 52.9211 28 52.3706 28H49.105V13.481H50.3389V19.2236C50.8275 19.1618 51.3161 19.0999 51.8047 19.0381C52.4232 18.9577 52.9087 18.9175 53.2612 18.9175C53.9478 18.9175 54.291 19.2546 54.291 19.9287V26.061ZM53.0571 25.8755V20.0771L50.3389 20.1514V26.9146H52.0459C52.7201 26.9146 53.0571 26.5682 53.0571 25.8755Z" fill="black"/>
<path d="M7.21777 28V28.1254H7.41703L7.33086 27.9458L7.21777 28ZM5.79834 28L5.68527 28.0543L5.71943 28.1254H5.79834V28ZM2.44922 21.0234L2.56228 20.9692L2.3238 20.4724V21.0234H2.44922ZM2.44922 28V28.1254H2.57464V28H2.44922ZM1.15967 28H1.03425V28.1254H1.15967V28ZM1.15967 13.481V13.3555H1.03425V13.481H1.15967ZM2.44922 13.481H2.57464V13.3555H2.44922V13.481ZM2.44922 20.0029H2.3238V20.5684L2.56288 20.056L2.44922 20.0029ZM5.49219 13.481V13.3555H5.41231L5.37853 13.4279L5.49219 13.481ZM6.89307 13.481H7.01849V13.3555H6.89307V13.481ZM6.89307 13.5645L7.00635 13.6183L7.01849 13.5927V13.5645H6.89307ZM3.60889 20.4761L3.49561 20.4222L3.46991 20.4763L3.4958 20.5303L3.60889 20.4761ZM7.21777 27.8746H5.79834V28.1254H7.21777V27.8746ZM5.91141 27.9457L2.56228 20.9692L2.33615 21.0777L5.68527 28.0543L5.91141 27.9457ZM2.3238 21.0234V28H2.57464V21.0234H2.3238ZM2.44922 27.8746H1.15967V28.1254H2.44922V27.8746ZM1.28509 28V13.481H1.03425V28H1.28509ZM1.15967 13.6064H2.44922V13.3555H1.15967V13.6064ZM2.3238 13.481V20.0029H2.57464V13.481H2.3238ZM2.56288 20.056L5.60584 13.534L5.37853 13.4279L2.33556 19.9499L2.56288 20.056ZM5.49219 13.6064H6.89307V13.3555H5.49219V13.6064ZM6.76765 13.481V13.5645H7.01849V13.481H6.76765ZM6.77979 13.5106L3.49561 20.4222L3.72217 20.5299L7.00635 13.6183L6.77979 13.5106ZM3.4958 20.5303L7.10469 28.0542L7.33086 27.9458L3.72197 20.4218L3.4958 20.5303ZM9.62988 16.9971V17.1225H9.7553V16.9971H9.62988ZM8.37744 16.9971H8.25202V17.1225H8.37744V16.9971ZM8.37744 15.4385V15.3131H8.25202V15.4385H8.37744ZM9.62988 15.4385H9.7553V15.3131H9.62988V15.4385ZM9.61133 28V28.1254H9.73675V28H9.61133ZM8.396 28H8.27058V28.1254H8.396V28ZM8.396 18.9731V18.8477H8.27058V18.9731H8.396ZM9.61133 18.9731H9.73675V18.8477H9.61133V18.9731ZM9.62988 16.8717H8.37744V17.1225H9.62988V16.8717ZM8.50286 16.9971V15.4385H8.25202V16.9971H8.50286ZM8.37744 15.5639H9.62988V15.3131H8.37744V15.5639ZM9.50446 15.4385V16.9971H9.7553V15.4385H9.50446ZM9.61133 27.8746H8.396V28.1254H9.61133V27.8746ZM8.52142 28V18.9731H8.27058V28H8.52142ZM8.396 19.0986H9.61133V18.8477H8.396V19.0986ZM9.48591 18.9731V28H9.73675V18.9731H9.48591ZM14.9644 28V28.1254H15.0898V28H14.9644ZM12.1719 20.0586H12.2973V19.9332H12.1719V20.0586ZM11.0864 20.0586H10.961V20.184H11.0864V20.0586ZM11.0864 18.9731V18.8477H10.961V18.9731H11.0864ZM12.1719 18.9731V19.0986H12.2973V18.9731H12.1719ZM12.1719 16.1621V16.0367H12.0465V16.1621H12.1719ZM13.3872 16.1621H13.5126V16.0367H13.3872V16.1621ZM13.3872 18.9731H13.2618V19.0986H13.3872V18.9731ZM14.9644 18.9731H15.0898V18.8477H14.9644V18.9731ZM14.9644 20.0586V20.184H15.0898V20.0586H14.9644ZM13.3872 20.0586V19.9332H13.2618V20.0586H13.3872ZM13.3872 26.9146H13.2618V27.04H13.3872V26.9146ZM14.9644 26.9146H15.0898V26.7891H14.9644V26.9146ZM14.9644 27.8746H13.2109V28.1254H14.9644V27.8746ZM13.2109 27.8746C12.8842 27.8746 12.6621 27.7923 12.5207 27.6496C12.3791 27.5068 12.2973 27.2821 12.2973 26.9517H12.0465C12.0465 27.3202 12.1378 27.6196 12.3426 27.8262C12.5475 28.033 12.845 28.1254 13.2109 28.1254V27.8746ZM12.2973 26.9517V20.0586H12.0465V26.9517H12.2973ZM12.1719 19.9332H11.0864V20.184H12.1719V19.9332ZM11.2118 20.0586V18.9731H10.961V20.0586H11.2118ZM11.0864 19.0986H12.1719V18.8477H11.0864V19.0986ZM12.2973 18.9731V16.1621H12.0465V18.9731H12.2973ZM12.1719 16.2875H13.3872V16.0367H12.1719V16.2875ZM13.2618 16.1621V18.9731H13.5126V16.1621H13.2618ZM13.3872 19.0986H14.9644V18.8477H13.3872V19.0986ZM14.8389 18.9731V20.0586H15.0898V18.9731H14.8389ZM14.9644 19.9332H13.3872V20.184H14.9644V19.9332ZM13.2618 20.0586V26.9146H13.5126V20.0586H13.2618ZM13.3872 27.04H14.9644V26.7891H13.3872V27.04ZM14.8389 26.9146V28H15.0898V26.9146H14.8389ZM21.5884 23.2686L21.679 23.3553L21.7138 23.3189V23.2686H21.5884ZM21.1709 23.7046V23.83H21.2245L21.2615 23.7913L21.1709 23.7046ZM17.7383 23.7046V23.5792H17.6129V23.7046H17.7383ZM17.7383 26.9702H17.6129V27.0956H17.7383V26.9702ZM20.3916 26.9702V27.0956H20.517V26.9702H20.3916ZM20.3916 25.3188V25.1934H20.2662V25.3188H20.3916ZM21.5884 25.3188H21.7138V25.1934H21.5884V25.3188ZM20.3916 22.7212V22.8466H20.517V22.7212H20.3916ZM20.3916 20.0029H20.517V19.8775H20.3916V20.0029ZM17.7383 20.0029V19.8775H17.6129V20.0029H17.7383ZM17.7383 22.7212H17.6129V22.8466H17.7383V22.7212ZM21.463 26.9517C21.463 27.2821 21.3811 27.5068 21.2395 27.6496C21.0981 27.7923 20.8761 27.8746 20.5493 27.8746V28.1254C20.9153 28.1254 21.2127 28.033 21.4177 27.8262C21.6224 27.6196 21.7138 27.3202 21.7138 26.9517H21.463ZM20.5493 27.8746H17.5806V28.1254H20.5493V27.8746ZM17.5806 27.8746C17.2538 27.8746 17.0317 27.7923 16.8903 27.6496C16.7487 27.5068 16.6669 27.2821 16.6669 26.9517H16.4161C16.4161 27.3202 16.5074 27.6196 16.7122 27.8262C16.9171 28.033 17.2146 28.1254 17.5806 28.1254V27.8746ZM16.6669 26.9517V20.0215H16.4161V26.9517H16.6669ZM16.6669 20.0215C16.6669 19.6911 16.7487 19.4664 16.8903 19.3235C17.0317 19.1809 17.2538 19.0986 17.5806 19.0986V18.8477C17.2146 18.8477 16.9171 18.9402 16.7122 19.1469C16.5074 19.3535 16.4161 19.653 16.4161 20.0215H16.6669ZM17.5806 19.0986H20.5493V18.8477H17.5806V19.0986ZM20.5493 19.0986C20.8761 19.0986 21.0981 19.1809 21.2395 19.3235C21.3811 19.4664 21.463 19.6911 21.463 20.0215H21.7138C21.7138 19.653 21.6224 19.3535 21.4177 19.1469C21.2127 18.9402 20.9153 18.8477 20.5493 18.8477V19.0986ZM21.463 20.0215V23.2686H21.7138V20.0215H21.463ZM21.4978 23.1818L21.0803 23.6179L21.2615 23.7913L21.679 23.3553L21.4978 23.1818ZM21.1709 23.5792H17.7383V23.83H21.1709V23.5792ZM17.6129 23.7046V26.9702H17.8637V23.7046H17.6129ZM17.7383 27.0956H20.3916V26.8448H17.7383V27.0956ZM20.517 26.9702V25.3188H20.2662V26.9702H20.517ZM20.3916 25.4443H21.5884V25.1934H20.3916V25.4443ZM21.463 25.3188V26.9517H21.7138V25.3188H21.463ZM20.517 22.7212V20.0029H20.2662V22.7212H20.517ZM20.3916 19.8775H17.7383V20.1283H20.3916V19.8775ZM17.6129 20.0029V22.7212H17.8637V20.0029H17.6129ZM17.7383 22.8466H20.3916V22.5958H17.7383V22.8466ZM23.5645 24.9014V24.7759H23.439V24.9014H23.5645ZM24.7798 24.9014H24.9052V24.7759H24.7798V24.9014ZM24.7798 26.9331H24.6544V27.0585H24.7798V26.9331ZM27.2754 26.9331V27.0585H27.4008V26.9331H27.2754ZM27.2754 25.1333H27.4008V25.0739L27.3549 25.0363L27.2754 25.1333ZM24.0469 22.4893L24.1263 22.3922L24.1252 22.3913L24.0469 22.4893ZM28.4722 21.8213V21.9467H28.5976V21.8213H28.4722ZM27.2754 21.8213H27.15V21.9467H27.2754V21.8213ZM27.2754 20.04H27.4008V19.9146H27.2754V20.04ZM24.7798 20.04V19.9146H24.6544V20.04H24.7798ZM24.7798 21.6172H24.6544V21.6769L24.7007 21.7146L24.7798 21.6172ZM28.0361 24.2612L27.9571 24.3586L27.958 24.3594L28.0361 24.2612ZM28.3653 26.9517C28.3653 27.2818 28.2829 27.5063 28.14 27.6492C27.997 27.7921 27.7725 27.8746 27.4424 27.8746V28.1254C27.8112 28.1254 28.1108 28.0331 28.3173 27.8266C28.5239 27.6201 28.6161 27.3204 28.6161 26.9517H28.3653ZM27.4424 27.8746H24.6128V28.1254H27.4424V27.8746ZM24.6128 27.8746C24.2827 27.8746 24.0581 27.7921 23.9152 27.6492C23.7723 27.5063 23.6899 27.2818 23.6899 26.9517H23.439C23.439 27.3204 23.5313 27.6201 23.7379 27.8266C23.9444 28.0331 24.244 28.1254 24.6128 28.1254V27.8746ZM23.6899 26.9517V24.9014H23.439V26.9517H23.6899ZM23.5645 25.0268H24.7798V24.7759H23.5645V25.0268ZM24.6544 24.9014V26.9331H24.9052V24.9014H24.6544ZM24.7798 27.0585H27.2754V26.8077H24.7798V27.0585ZM27.4008 26.9331V25.1333H27.15V26.9331H27.4008ZM27.3549 25.0363L24.1263 22.3922L23.9674 22.5863L27.1959 25.2303L27.3549 25.0363ZM24.1252 22.3913C23.8457 22.1677 23.7084 21.8821 23.7084 21.5244H23.4576C23.4576 21.9584 23.6295 22.316 23.9685 22.5872L24.1252 22.3913ZM23.7084 21.5244V20.0215H23.4576V21.5244H23.7084ZM23.7084 20.0215C23.7084 19.6914 23.7909 19.4668 23.9338 19.3239C24.0767 19.181 24.3012 19.0986 24.6313 19.0986V18.8477C24.2626 18.8477 23.9629 18.94 23.7564 19.1465C23.5499 19.3531 23.4576 19.6527 23.4576 20.0215H23.7084ZM24.6313 19.0986H27.4238V18.8477H24.6313V19.0986ZM27.4238 19.0986C27.7539 19.0986 27.9785 19.181 28.1214 19.3239C28.2643 19.4668 28.3467 19.6914 28.3467 20.0215H28.5976C28.5976 19.6527 28.5053 19.3531 28.2988 19.1465C28.0922 18.94 27.7926 18.8477 27.4238 18.8477V19.0986ZM28.3467 20.0215V21.8213H28.5976V20.0215H28.3467ZM28.4722 21.6959H27.2754V21.9467H28.4722V21.6959ZM27.4008 21.8213V20.04H27.15V21.8213H27.4008ZM27.2754 19.9146H24.7798V20.1655H27.2754V19.9146ZM24.6544 20.04V21.6172H24.9052V20.04H24.6544ZM24.7007 21.7146L27.9571 24.3586L28.1152 24.1639L24.8588 21.5198L24.7007 21.7146ZM27.958 24.3594C28.2289 24.5749 28.3653 24.8654 28.3653 25.2446H28.6161C28.6161 24.7951 28.4495 24.43 28.1142 24.1631L27.958 24.3594ZM28.3653 25.2446V26.9517H28.6161V25.2446H28.3653ZM36.4229 17.8877V18.0131H36.5483V17.8877H36.4229ZM35.124 17.8877H34.9986V18.0131H35.124V17.8877ZM35.124 14.6221H35.2494V14.4967H35.124V14.6221ZM31.8955 14.6221V14.4967H31.7701V14.6221H31.8955ZM31.8955 26.8589H31.7701V26.9843H31.8955V26.8589ZM35.124 26.8589V26.9843H35.2494V26.8589H35.124ZM35.124 23.2871V23.1617H34.9986V23.2871H35.124ZM36.4229 23.2871H36.5483V23.1617H36.4229V23.2871ZM36.2974 26.9702C36.2974 27.2431 36.2097 27.4567 36.0387 27.6223L36.2132 27.8025C36.4381 27.5846 36.5483 27.3035 36.5483 26.9702H36.2974ZM36.0387 27.6223C35.8666 27.789 35.6486 27.8746 35.3745 27.8746V28.1254C35.7066 28.1254 35.9895 28.0192 36.2132 27.8025L36.0387 27.6223ZM35.3745 27.8746H31.6357V28.1254H35.3745V27.8746ZM31.6357 27.8746C31.3617 27.8746 31.1476 27.7891 30.9822 27.6237L30.8049 27.8011C31.023 28.0192 31.3037 28.1254 31.6357 28.1254V27.8746ZM30.9822 27.6237C30.8169 27.4584 30.7314 27.2443 30.7314 26.9702H30.4805C30.4805 27.3023 30.5868 27.583 30.8049 27.8011L30.9822 27.6237ZM30.7314 26.9702V14.5107H30.4805V26.9702H30.7314ZM30.7314 14.5107C30.7314 14.2367 30.8169 14.0226 30.9822 13.8572L30.8049 13.6799C30.5868 13.898 30.4805 14.1787 30.4805 14.5107H30.7314ZM30.9822 13.8572C31.1476 13.6919 31.3617 13.6064 31.6357 13.6064V13.3555C31.3037 13.3555 31.023 13.4618 30.8049 13.6799L30.9822 13.8572ZM31.6357 13.6064H35.3745V13.3555H31.6357V13.6064ZM35.3745 13.6064C35.6486 13.6064 35.8666 13.6919 36.0387 13.8586L36.2132 13.6785C35.9895 13.4617 35.7066 13.3555 35.3745 13.3555V13.6064ZM36.0387 13.8586C36.2097 14.0243 36.2974 14.2379 36.2974 14.5107H36.5483C36.5483 14.1775 36.4381 13.8963 36.2132 13.6785L36.0387 13.8586ZM36.2974 14.5107V17.8877H36.5483V14.5107H36.2974ZM36.4229 17.7623H35.124V18.0131H36.4229V17.7623ZM35.2494 17.8877V14.6221H34.9986V17.8877H35.2494ZM35.124 14.4967H31.8955V14.7475H35.124V14.4967ZM31.7701 14.6221V26.8589H32.0209V14.6221H31.7701ZM31.8955 26.9843H35.124V26.7335H31.8955V26.9843ZM35.2494 26.8589V23.2871H34.9986V26.8589H35.2494ZM35.124 23.4125H36.4229V23.1617H35.124V23.4125ZM36.2974 23.2871V26.9702H36.5483V23.2871H36.2974ZM39.8184 28V28.1254H39.9438V28H39.8184ZM38.603 28H38.4776V28.1254H38.603V28ZM38.603 13.481V13.3555H38.4776V13.481H38.603ZM39.8184 13.481H39.9438V13.3555H39.8184V13.481ZM39.8184 27.8746H38.603V28.1254H39.8184V27.8746ZM38.7284 28V13.481H38.4776V28H38.7284ZM38.603 13.6064H39.8184V13.3555H38.603V13.6064ZM39.6929 13.481V28H39.9438V13.481H39.6929ZM47.0918 28V28.1254H47.2172V28H47.0918ZM45.8765 28H45.751V28.1254H45.8765V28ZM45.8765 27.7495H46.0019V27.6057L45.8594 27.6253L45.8765 27.7495ZM44.4014 27.9443L44.4169 28.0688L44.4171 28.0688L44.4014 27.9443ZM41.9243 18.9731V18.8477H41.7989V18.9731H41.9243ZM43.1396 18.9731H43.2651V18.8477H43.1396V18.9731ZM43.1396 26.896H43.0142V27.0249L43.143 27.0214L43.1396 26.896ZM45.8765 26.8218L45.8799 26.9472L46.0019 26.9438V26.8218H45.8765ZM45.8765 18.9731V18.8477H45.751V18.9731H45.8765ZM47.0918 18.9731H47.2172V18.8477H47.0918V18.9731ZM47.0918 27.8746H45.8765V28.1254H47.0918V27.8746ZM46.0019 28V27.7495H45.751V28H46.0019ZM45.8594 27.6253C45.365 27.6932 44.8738 27.7581 44.3856 27.8199L44.4171 28.0688C44.9062 28.0069 45.3983 27.9419 45.8936 27.8738L45.8594 27.6253ZM44.3858 27.8199C43.7948 27.8938 43.3087 27.9302 42.9263 27.9302V28.1811C43.3231 28.1811 43.8204 28.1433 44.4169 28.0688L44.3858 27.8199ZM42.9263 27.9302C42.6116 27.9302 42.3987 27.8517 42.2635 27.7165C42.1283 27.5813 42.0497 27.3684 42.0497 27.0537H41.7989C41.7989 27.407 41.8873 27.6951 42.0861 27.8939C42.2849 28.0927 42.573 28.1811 42.9263 28.1811V27.9302ZM42.0497 27.0537V18.9731H41.7989V27.0537H42.0497ZM41.9243 19.0986H43.1396V18.8477H41.9243V19.0986ZM43.0142 18.9731V26.896H43.2651V18.9731H43.0142ZM43.143 27.0214L45.8799 26.9472L45.8731 26.6964L43.1362 26.7706L43.143 27.0214ZM46.0019 26.8218V18.9731H45.751V26.8218H46.0019ZM45.8765 19.0986H47.0918V18.8477H45.8765V19.0986ZM46.9664 18.9731V28H47.2172V18.9731H46.9664ZM53.7437 27.4526L53.8323 27.5413L53.8331 27.5406L53.7437 27.4526ZM49.105 28H48.9796V28.1254H49.105V28ZM49.105 13.481V13.3555H48.9796V13.481H49.105ZM50.3389 13.481H50.4643V13.3555H50.3389V13.481ZM50.3389 19.2236H50.2134V19.3659L50.3546 19.3481L50.3389 19.2236ZM51.8047 19.0381L51.8204 19.1625L51.8209 19.1625L51.8047 19.0381ZM53.0571 20.0771H53.1825V19.9483L53.0537 19.9518L53.0571 20.0771ZM50.3389 20.1514L50.3354 20.026L50.2134 20.0293V20.1514H50.3389ZM50.3389 26.9146H50.2134V27.04H50.3389V26.9146ZM54.1656 26.061C54.1656 26.5873 53.9944 27.0188 53.6542 27.3647L53.8331 27.5406C54.2228 27.1443 54.4164 26.648 54.4164 26.061H54.1656ZM53.655 27.364C53.3153 27.7037 52.8903 27.8746 52.3706 27.8746V28.1254C52.9519 28.1254 53.4422 27.9314 53.8323 27.5413L53.655 27.364ZM52.3706 27.8746H49.105V28.1254H52.3706V27.8746ZM49.2304 28V13.481H48.9796V28H49.2304ZM49.105 13.6064H50.3389V13.3555H49.105V13.6064ZM50.2134 13.481V19.2236H50.4643V13.481H50.2134ZM50.3546 19.3481C50.365 19.3467 50.3901 19.3436 50.4004 19.3423C50.4108 19.3409 50.4359 19.3378 50.4462 19.3365C50.4566 19.3351 50.4817 19.332 50.492 19.3307C50.5024 19.3294 50.5275 19.3262 50.5378 19.3249C50.5482 19.3236 50.5733 19.3204 50.5837 19.3191C50.594 19.3178 50.6191 19.3146 50.6295 19.3133C50.6398 19.312 50.6649 19.3088 50.6753 19.3075C50.6856 19.3062 50.7107 19.303 50.7211 19.3017C50.7314 19.3004 50.7565 19.2972 50.7669 19.2959C50.7772 19.2946 50.8023 19.2914 50.8127 19.2901C50.8231 19.2888 50.8481 19.2856 50.8585 19.2843C50.8689 19.283 50.8939 19.2798 50.9043 19.2785C50.9147 19.2772 50.9397 19.274 50.9501 19.2727C50.9605 19.2714 50.9855 19.2682 50.9959 19.2669C51.0063 19.2656 51.0314 19.2624 51.0417 19.2611C51.0521 19.2598 51.0772 19.2566 51.0875 19.2553C51.0877 19.2553 51.0931 19.2546 51.0933 19.2546C51.0934 19.2545 51.0988 19.2539 51.099 19.2538C51.0992 19.2538 51.1045 19.2531 51.1047 19.2531C51.1049 19.2531 51.1102 19.2524 51.1104 19.2524C51.1106 19.2524 51.116 19.2517 51.1162 19.2517C51.1163 19.2516 51.1217 19.251 51.1219 19.2509C51.1221 19.2509 51.1274 19.2502 51.1276 19.2502C51.1278 19.2502 51.1331 19.2495 51.1333 19.2495C51.1335 19.2495 51.1389 19.2488 51.1391 19.2488C51.1392 19.2487 51.1446 19.2481 51.1448 19.248C51.145 19.248 51.1503 19.2473 51.1505 19.2473C51.1507 19.2473 51.1561 19.2466 51.1562 19.2466C51.1564 19.2466 51.1618 19.2459 51.162 19.2459C51.1622 19.2458 51.1675 19.2452 51.1677 19.2451C51.1679 19.2451 51.1732 19.2444 51.1734 19.2444C51.1736 19.2444 51.179 19.2437 51.1791 19.2437C51.1793 19.2437 51.1847 19.243 51.1849 19.243C51.1851 19.2429 51.1904 19.2423 51.1906 19.2422C51.1908 19.2422 51.1961 19.2415 51.1963 19.2415C51.1965 19.2415 51.2019 19.2408 51.202 19.2408C51.2022 19.2408 51.2076 19.2401 51.2078 19.2401C51.208 19.24 51.2133 19.2394 51.2135 19.2393C51.2137 19.2393 51.219 19.2386 51.2192 19.2386C51.2194 19.2386 51.2248 19.2379 51.2249 19.2379C51.2251 19.2379 51.2305 19.2372 51.2307 19.2372C51.2309 19.2371 51.2362 19.2365 51.2364 19.2364C51.2366 19.2364 51.2419 19.2357 51.2421 19.2357C51.2423 19.2357 51.2477 19.235 51.2479 19.235C51.248 19.235 51.2534 19.2343 51.2536 19.2343C51.2538 19.2342 51.2591 19.2336 51.2593 19.2335C51.2595 19.2335 51.2648 19.2328 51.265 19.2328C51.2652 19.2328 51.2706 19.2321 51.2708 19.2321C51.2709 19.2321 51.2763 19.2314 51.2765 19.2314C51.2767 19.2313 51.282 19.2307 51.2822 19.2306C51.2824 19.2306 51.2877 19.2299 51.2879 19.2299C51.2881 19.2299 51.2935 19.2292 51.2937 19.2292C51.2938 19.2292 51.2992 19.2285 51.2994 19.2285C51.2996 19.2284 51.3049 19.2278 51.3051 19.2277C51.3053 19.2277 51.3106 19.227 51.3108 19.227C51.311 19.227 51.3164 19.2263 51.3166 19.2263C51.3167 19.2263 51.3221 19.2256 51.3223 19.2256C51.3225 19.2255 51.3278 19.2249 51.328 19.2248C51.3282 19.2248 51.3336 19.2241 51.3337 19.2241C51.3339 19.2241 51.3393 19.2234 51.3395 19.2234C51.3397 19.2234 51.345 19.2227 51.3452 19.2227C51.3454 19.2226 51.3507 19.222 51.3509 19.2219C51.3511 19.2219 51.3565 19.2212 51.3566 19.2212C51.3568 19.2212 51.3622 19.2205 51.3624 19.2205C51.3626 19.2205 51.3679 19.2198 51.3681 19.2198C51.3683 19.2197 51.3736 19.2191 51.3738 19.219C51.374 19.219 51.3794 19.2183 51.3795 19.2183C51.3797 19.2183 51.3851 19.2176 51.3853 19.2176C51.3855 19.2176 51.3908 19.2169 51.391 19.2169C51.3912 19.2168 51.3965 19.2162 51.3967 19.2161C51.3969 19.2161 51.4023 19.2154 51.4025 19.2154C51.4026 19.2154 51.408 19.2147 51.4082 19.2147C51.4084 19.2147 51.4137 19.214 51.4139 19.214C51.4141 19.2139 51.4194 19.2133 51.4196 19.2132C51.4198 19.2132 51.4252 19.2125 51.4254 19.2125C51.4255 19.2125 51.4309 19.2118 51.4311 19.2118C51.4313 19.2118 51.4366 19.2111 51.4368 19.2111C51.437 19.2111 51.4423 19.2104 51.4425 19.2103C51.4427 19.2103 51.4481 19.2096 51.4483 19.2096C51.4484 19.2096 51.4538 19.2089 51.454 19.2089C51.4542 19.2089 51.4595 19.2082 51.4597 19.2082C51.4599 19.2082 51.4652 19.2075 51.4654 19.2074C51.4656 19.2074 51.471 19.2067 51.4712 19.2067C51.4713 19.2067 51.4767 19.206 51.4769 19.206C51.4771 19.206 51.4824 19.2053 51.4826 19.2053C51.4828 19.2053 51.4882 19.2046 51.4883 19.2046C51.4885 19.2045 51.4939 19.2038 51.4941 19.2038C51.4943 19.2038 51.4996 19.2031 51.4998 19.2031C51.5 19.2031 51.5053 19.2024 51.5055 19.2024C51.5057 19.2024 51.5111 19.2017 51.5112 19.2017C51.5114 19.2016 51.5168 19.2009 51.517 19.2009C51.5172 19.2009 51.5225 19.2002 51.5227 19.2002C51.5229 19.2002 51.5282 19.1995 51.5284 19.1995C51.5286 19.1995 51.534 19.1988 51.5341 19.1988C51.5343 19.1987 51.5397 19.1981 51.5399 19.198C51.5401 19.198 51.5454 19.1973 51.5456 19.1973C51.5458 19.1973 51.5511 19.1966 51.5513 19.1966C51.5515 19.1966 51.5569 19.1959 51.557 19.1959C51.5572 19.1958 51.5626 19.1952 51.5628 19.1951C51.563 19.1951 51.5683 19.1944 51.5685 19.1944C51.5687 19.1944 51.574 19.1937 51.5742 19.1937C51.5744 19.1937 51.5798 19.193 51.58 19.193C51.5801 19.1929 51.5855 19.1923 51.5857 19.1922C51.5859 19.1922 51.5912 19.1915 51.5914 19.1915C51.5916 19.1915 51.5969 19.1908 51.5971 19.1908C51.5973 19.1908 51.6027 19.1901 51.6029 19.1901C51.603 19.19 51.6084 19.1894 51.6086 19.1893C51.6088 19.1893 51.6141 19.1886 51.6143 19.1886C51.6145 19.1886 51.6198 19.1879 51.62 19.1879C51.6202 19.1879 51.6256 19.1872 51.6258 19.1872C51.6259 19.1871 51.6313 19.1865 51.6315 19.1864C51.6317 19.1864 51.637 19.1857 51.6372 19.1857C51.6374 19.1857 51.6427 19.185 51.6429 19.185C51.6431 19.185 51.6485 19.1843 51.6487 19.1843C51.6488 19.1842 51.6542 19.1836 51.6544 19.1835C51.6546 19.1835 51.6599 19.1828 51.6601 19.1828C51.6603 19.1828 51.6657 19.1821 51.6658 19.1821C51.666 19.1821 51.6714 19.1814 51.6716 19.1814C51.6718 19.1813 51.6771 19.1807 51.6773 19.1806C51.6775 19.1806 51.6828 19.1799 51.683 19.1799C51.6832 19.1799 51.6886 19.1792 51.6887 19.1792C51.6889 19.1792 51.6943 19.1785 51.6945 19.1785C51.6947 19.1784 51.7 19.1778 51.7002 19.1777C51.7004 19.1777 51.7057 19.177 51.7059 19.177C51.7061 19.177 51.7115 19.1763 51.7116 19.1763C51.7118 19.1763 51.7172 19.1756 51.7174 19.1756C51.7176 19.1755 51.7229 19.1749 51.7231 19.1748C51.7233 19.1748 51.7286 19.1741 51.7288 19.1741C51.729 19.1741 51.7344 19.1734 51.7346 19.1734C51.7347 19.1734 51.7401 19.1727 51.7403 19.1727C51.7405 19.1726 51.7458 19.172 51.746 19.1719C51.7462 19.1719 51.7515 19.1712 51.7517 19.1712C51.7519 19.1712 51.7573 19.1705 51.7575 19.1705C51.7576 19.1705 51.763 19.1698 51.7632 19.1698C51.7634 19.1697 51.7687 19.1691 51.7689 19.169C51.7691 19.169 51.7744 19.1683 51.7746 19.1683C51.7748 19.1683 51.7802 19.1676 51.7804 19.1676C51.7805 19.1676 51.7859 19.1669 51.7861 19.1669C51.7863 19.1668 51.7916 19.1662 51.7918 19.1661C51.792 19.1661 51.7973 19.1654 51.7975 19.1654C51.7977 19.1654 51.8031 19.1647 51.8033 19.1647C51.8034 19.1647 51.8088 19.164 51.809 19.164C51.8092 19.1639 51.8145 19.1633 51.8147 19.1632C51.8149 19.1632 51.8203 19.1625 51.8204 19.1625L51.7889 18.9137C51.7786 18.915 51.7535 18.9181 51.7431 18.9195C51.7328 18.9208 51.7077 18.9239 51.6973 18.9253C51.687 18.9266 51.6619 18.9297 51.6515 18.9311C51.6411 18.9324 51.6161 18.9355 51.6057 18.9369C51.5953 18.9382 51.5703 18.9413 51.5599 18.9427C51.5495 18.944 51.5245 18.9471 51.5141 18.9484C51.5037 18.9498 51.4787 18.9529 51.4683 18.9542C51.4579 18.9556 51.4328 18.9587 51.4225 18.96C51.4121 18.9614 51.387 18.9645 51.3767 18.9658C51.3663 18.9672 51.3412 18.9703 51.3309 18.9716C51.3205 18.973 51.2954 18.9761 51.2851 18.9774C51.2747 18.9788 51.2496 18.9819 51.2393 18.9832C51.2289 18.9846 51.2038 18.9877 51.1934 18.989C51.1831 18.9904 51.158 18.9935 51.1476 18.9948C51.1373 18.9961 51.1122 18.9993 51.1018 19.0006C51.0915 19.0019 51.0664 19.0051 51.056 19.0064C51.0558 19.0065 51.0505 19.0071 51.0503 19.0072C51.0501 19.0072 51.0448 19.0079 51.0446 19.0079C51.0444 19.0079 51.039 19.0086 51.0388 19.0086C51.0387 19.0086 51.0333 19.0093 51.0331 19.0093C51.0329 19.0094 51.0276 19.01 51.0274 19.0101C51.0272 19.0101 51.0219 19.0108 51.0217 19.0108C51.0215 19.0108 51.0161 19.0115 51.0159 19.0115C51.0158 19.0115 51.0104 19.0122 51.0102 19.0122C51.01 19.0123 51.0047 19.0129 51.0045 19.013C51.0043 19.013 50.999 19.0137 50.9988 19.0137C50.9986 19.0137 50.9932 19.0144 50.993 19.0144C50.9929 19.0144 50.9875 19.0151 50.9873 19.0151C50.9871 19.0152 50.9818 19.0158 50.9816 19.0159C50.9814 19.0159 50.9761 19.0166 50.9759 19.0166C50.9757 19.0166 50.9703 19.0173 50.9701 19.0173C50.97 19.0173 50.9646 19.018 50.9644 19.018C50.9642 19.0181 50.9589 19.0187 50.9587 19.0188C50.9585 19.0188 50.9531 19.0195 50.953 19.0195C50.9528 19.0195 50.9474 19.0202 50.9472 19.0202C50.947 19.0202 50.9417 19.0209 50.9415 19.0209C50.9413 19.021 50.936 19.0216 50.9358 19.0217C50.9356 19.0217 50.9302 19.0224 50.9301 19.0224C50.9299 19.0224 50.9245 19.0231 50.9243 19.0231C50.9241 19.0231 50.9188 19.0238 50.9186 19.0238C50.9184 19.0239 50.9131 19.0245 50.9129 19.0246C50.9127 19.0246 50.9073 19.0253 50.9072 19.0253C50.907 19.0253 50.9016 19.026 50.9014 19.026C50.9012 19.026 50.8959 19.0267 50.8957 19.0267C50.8955 19.0268 50.8902 19.0274 50.89 19.0275C50.8898 19.0275 50.8844 19.0282 50.8843 19.0282C50.8841 19.0282 50.8787 19.0289 50.8785 19.0289C50.8783 19.0289 50.873 19.0296 50.8728 19.0296C50.8726 19.0296 50.8673 19.0303 50.8671 19.0304C50.8669 19.0304 50.8615 19.0311 50.8613 19.0311C50.8612 19.0311 50.8558 19.0318 50.8556 19.0318C50.8554 19.0318 50.8501 19.0325 50.8499 19.0325C50.8497 19.0325 50.8444 19.0332 50.8442 19.0332C50.844 19.0333 50.8386 19.034 50.8384 19.034C50.8383 19.034 50.8329 19.0347 50.8327 19.0347C50.8325 19.0347 50.8272 19.0354 50.827 19.0354C50.8268 19.0354 50.8215 19.0361 50.8213 19.0361C50.8211 19.0362 50.8157 19.0369 50.8155 19.0369C50.8154 19.0369 50.81 19.0376 50.8098 19.0376C50.8096 19.0376 50.8043 19.0383 50.8041 19.0383C50.8039 19.0383 50.7985 19.039 50.7984 19.039C50.7982 19.0391 50.7928 19.0398 50.7926 19.0398C50.7924 19.0398 50.7871 19.0405 50.7869 19.0405C50.7867 19.0405 50.7814 19.0412 50.7812 19.0412C50.781 19.0412 50.7756 19.0419 50.7755 19.0419C50.7753 19.042 50.7699 19.0426 50.7697 19.0427C50.7695 19.0427 50.7642 19.0434 50.764 19.0434C50.7638 19.0434 50.7585 19.0441 50.7583 19.0441C50.7581 19.0441 50.7527 19.0448 50.7526 19.0448C50.7524 19.0449 50.747 19.0455 50.7468 19.0456C50.7466 19.0456 50.7413 19.0463 50.7411 19.0463C50.7409 19.0463 50.7356 19.047 50.7354 19.047C50.7352 19.047 50.7298 19.0477 50.7297 19.0477C50.7295 19.0478 50.7241 19.0484 50.7239 19.0485C50.7237 19.0485 50.7184 19.0492 50.7182 19.0492C50.718 19.0492 50.7127 19.0499 50.7125 19.0499C50.7123 19.0499 50.7069 19.0506 50.7067 19.0506C50.7066 19.0507 50.7012 19.0513 50.701 19.0514C50.7008 19.0514 50.6955 19.0521 50.6953 19.0521C50.6951 19.0521 50.6898 19.0528 50.6896 19.0528C50.6894 19.0528 50.684 19.0535 50.6838 19.0535C50.6837 19.0536 50.6783 19.0542 50.6781 19.0543C50.6779 19.0543 50.6726 19.055 50.6724 19.055C50.6722 19.055 50.6669 19.0557 50.6667 19.0557C50.6665 19.0557 50.6611 19.0564 50.6609 19.0564C50.6608 19.0565 50.6554 19.0571 50.6552 19.0572C50.655 19.0572 50.6497 19.0579 50.6495 19.0579C50.6493 19.0579 50.644 19.0586 50.6438 19.0586C50.6436 19.0586 50.6382 19.0593 50.638 19.0593C50.6379 19.0594 50.6325 19.06 50.6323 19.0601C50.6321 19.0601 50.6268 19.0608 50.6266 19.0608C50.6264 19.0608 50.621 19.0615 50.6209 19.0615C50.6207 19.0615 50.6153 19.0622 50.6151 19.0622C50.6149 19.0623 50.6096 19.0629 50.6094 19.063C50.6092 19.063 50.6039 19.0637 50.6037 19.0637C50.6035 19.0637 50.5981 19.0644 50.598 19.0644C50.5978 19.0644 50.5924 19.0651 50.5922 19.0651C50.592 19.0652 50.5867 19.0658 50.5865 19.0659C50.5863 19.0659 50.581 19.0666 50.5808 19.0666C50.5806 19.0666 50.5752 19.0673 50.5751 19.0673C50.5749 19.0673 50.5695 19.068 50.5693 19.068C50.5691 19.0681 50.5638 19.0687 50.5636 19.0688C50.5634 19.0688 50.5581 19.0695 50.5579 19.0695C50.5577 19.0695 50.5523 19.0702 50.5522 19.0702C50.552 19.0702 50.5466 19.0709 50.5464 19.0709C50.5462 19.071 50.5409 19.0716 50.5407 19.0717C50.5405 19.0717 50.5352 19.0724 50.535 19.0724C50.5348 19.0724 50.5294 19.0731 50.5292 19.0731C50.5291 19.0731 50.5237 19.0738 50.5235 19.0738C50.5233 19.0739 50.518 19.0745 50.5178 19.0746C50.5176 19.0746 50.5123 19.0753 50.5121 19.0753C50.5119 19.0753 50.5065 19.076 50.5063 19.076C50.5062 19.076 50.5008 19.0767 50.5006 19.0767C50.5004 19.0768 50.4951 19.0774 50.4949 19.0775C50.4947 19.0775 50.4894 19.0782 50.4892 19.0782C50.489 19.0782 50.4836 19.0789 50.4834 19.0789C50.4833 19.0789 50.4779 19.0796 50.4777 19.0796C50.4775 19.0797 50.4722 19.0803 50.472 19.0804C50.4718 19.0804 50.4664 19.0811 50.4663 19.0811C50.4661 19.0811 50.4607 19.0818 50.4605 19.0818C50.4604 19.0818 50.455 19.0825 50.4548 19.0825C50.4546 19.0826 50.4493 19.0832 50.4491 19.0833C50.4489 19.0833 50.4435 19.084 50.4434 19.084C50.4432 19.084 50.4378 19.0847 50.4376 19.0847C50.4374 19.0847 50.4321 19.0854 50.4319 19.0854C50.4317 19.0855 50.4264 19.0861 50.4262 19.0862C50.426 19.0862 50.4206 19.0869 50.4205 19.0869C50.4203 19.0869 50.4149 19.0876 50.4147 19.0876C50.4145 19.0876 50.4092 19.0883 50.409 19.0883C50.4088 19.0884 50.4035 19.089 50.4033 19.0891C50.4031 19.0891 50.3977 19.0898 50.3976 19.0898C50.3974 19.0898 50.392 19.0905 50.3918 19.0905C50.3916 19.0905 50.3863 19.0912 50.3861 19.0912C50.3859 19.0913 50.3806 19.0919 50.3804 19.092C50.3802 19.092 50.3748 19.0927 50.3746 19.0927C50.3745 19.0927 50.3691 19.0934 50.3689 19.0934C50.3687 19.0934 50.3634 19.0941 50.3632 19.0941C50.363 19.0942 50.3577 19.0948 50.3575 19.0949C50.3573 19.0949 50.3519 19.0956 50.3517 19.0956C50.3516 19.0956 50.3462 19.0963 50.346 19.0963C50.3458 19.0963 50.3405 19.097 50.3403 19.097C50.3401 19.0971 50.3348 19.0977 50.3346 19.0978C50.3344 19.0978 50.329 19.0985 50.3288 19.0985C50.3287 19.0985 50.3233 19.0992 50.3231 19.0992L50.3546 19.3481ZM51.8209 19.1625C52.4374 19.0823 52.9167 19.0429 53.2612 19.0429V18.7921C52.9007 18.7921 52.409 18.8331 51.7885 18.9137L51.8209 19.1625ZM53.2612 19.0429C53.5857 19.0429 53.806 19.1226 53.9457 19.2598C54.085 19.3966 54.1656 19.6116 54.1656 19.9287H54.4164C54.4164 19.5717 54.3254 19.2811 54.1214 19.0808C53.9179 18.8809 53.6233 18.7921 53.2612 18.7921V19.0429ZM54.1656 19.9287V26.061H54.4164V19.9287H54.1656ZM53.1825 25.8755V20.0771H52.9317V25.8755H53.1825ZM53.0537 19.9518L50.3354 20.026L50.3423 20.2767L53.0606 20.2025L53.0537 19.9518ZM50.2134 20.1514V26.9146H50.4643V20.1514H50.2134ZM50.3389 27.04H52.0459V26.7891H50.3389V27.04ZM52.0459 27.04C52.4032 27.04 52.694 26.948 52.8942 26.7423C53.0938 26.5372 53.1825 26.2403 53.1825 25.8755H52.9317C52.9317 26.2034 52.8519 26.4261 52.7144 26.5673C52.5776 26.7079 52.3628 26.7891 52.0459 26.7891V27.04Z" fill="black"/>
<path fill-rule="evenodd" clip-rule="evenodd" d="M11 15.2966C15.8031 11.7004 33.7375 3.62973 39.7385 1L48.7391 8.9571L48.3597 9.24822C47.6522 8.88918 46.9797 8.54178 46.3371 8.21573C43.5792 6.81257 41.3529 5.80337 39.1617 5.93923C36.2167 6.12166 33.9729 8.45056 30.3338 11.7324L29.9143 11.5043C30.0624 11.2249 31.1842 9.12304 31.7827 7.86252C31.9966 7.41032 32.1292 7.09883 32.1087 6.92319C32.0285 6.26915 26.1991 8.55343 25.5893 8.83678L11 15.2966Z" fill="black" stroke="black" stroke-width="0.22" stroke-miterlimit="2.61"/>
</svg>
