<svg width="26" height="26" viewBox="0 0 26 26" fill="none" xmlns="http://www.w3.org/2000/svg">
<rect x="0.5" y="0.923096" width="24.5769" height="24.5769" rx="12.2885" fill="white" stroke="#DDDDDB"/>
<path d="M18.9078 16.0285C18.4654 15.7903 17.7986 15.4303 17.8081 15.0481C17.8745 12.6026 17.2077 10.7387 15.8836 9.66413C15.5802 9.41764 15.2452 9.21546 14.8849 9.06037C15.1378 8.77511 15.2863 8.42892 15.2863 8.05503C15.2863 7.09123 14.3003 6.30469 13.0868 6.30469C11.8733 6.30469 10.8874 7.09123 10.8874 8.05503C10.8874 8.42892 11.0359 8.77511 11.2887 9.06037C10.9284 9.21546 10.5935 9.41764 10.2901 9.66413C8.96598 10.7415 8.30234 12.6026 8.36555 15.0481C8.37503 15.4303 7.70823 15.7903 7.26581 16.0285C6.83603 16.2612 6.2988 16.552 6.48841 17.0394C6.67802 17.5268 6.95928 17.6404 10.3533 17.6653C10.5081 18.7565 11.6268 19.8754 13.0868 19.8754C14.5468 19.8754 15.6623 18.7565 15.8204 17.6653C19.2144 17.6404 19.4988 17.5268 19.6852 17.0394C19.8748 16.552 19.3408 16.2612 18.9078 16.0285ZM13.09 7.43466C13.5198 7.43466 13.8674 7.71161 13.8674 8.05503C13.8674 8.39568 13.5198 8.67541 13.09 8.67541C12.6602 8.67541 12.3126 8.39845 12.3126 8.05503C12.3126 7.71438 12.6602 7.43466 13.09 7.43466ZM13.09 18.7454C12.4896 18.7454 11.9428 18.1998 11.7975 17.6736C12.1704 17.6736 14.0096 17.6736 14.3825 17.6736C14.2371 18.1998 13.6904 18.7454 13.09 18.7454ZM8.83325 16.5104C9.33887 16.1587 9.80658 15.6796 9.78762 15.0259C9.73073 12.9211 10.2711 11.2982 11.3077 10.4562C11.807 10.0491 12.4074 9.83584 13.09 9.81922C13.7726 9.83584 14.373 10.0491 14.8723 10.4562C15.9088 11.2982 16.4461 12.9211 16.3923 15.0259C16.3765 15.6796 16.8411 16.1587 17.3467 16.5104C16.1648 16.5409 10.0151 16.5409 8.83325 16.5104Z" fill="#FF6464"/>
</svg>
