<svg width="17" height="14" viewBox="0 0 17 14" fill="none" xmlns="http://www.w3.org/2000/svg">
<g clip-path="url(#clip0_1_247)">
<path d="M16.1474 11.064L13.6857 8.90172C13.1954 8.47286 12.3833 8.48599 11.8759 8.93164L10.6358 10.0208C10.5575 9.98272 10.4764 9.94312 10.3911 9.90111C9.60794 9.51999 8.53596 8.99763 7.40788 8.00619C6.27665 7.01275 5.6811 6.06975 5.24598 5.38147C5.19979 5.3085 5.15589 5.23829 5.11253 5.17153L5.94492 4.44144L6.35408 4.08162C6.86237 3.6352 6.87645 2.92218 6.38704 2.49215L3.92528 0.329594C3.43619 -0.0999594 2.62378 -0.0868987 2.11549 0.359516L1.42166 0.972334L1.44078 0.988919C1.20819 1.24958 1.01361 1.55032 0.869146 1.87456C0.735699 2.18318 0.65261 2.47777 0.614606 2.77278C0.289644 5.13961 1.52104 7.30257 4.86303 10.238C9.4826 14.2949 13.2056 13.9885 13.3661 13.9734C13.7162 13.9368 14.0512 13.8633 14.392 13.7471C14.758 13.6215 15.1002 13.4511 15.3967 13.2473L15.4119 13.2589L16.1147 12.6544C16.6219 12.2081 16.6366 11.4951 16.1474 11.064ZM15.5679 12.1737L15.2581 12.4453L15.1347 12.5495C14.9405 12.7144 14.6042 12.9461 14.1131 13.1148C13.8343 13.2091 13.5595 13.2696 13.2799 13.2988C13.2447 13.3018 9.74304 13.5642 5.40925 9.75827C1.72435 6.52211 1.13384 4.65733 1.38137 2.85121C1.41237 2.61184 1.48075 2.37094 1.59004 2.11919C1.78376 1.68542 2.04735 1.39035 2.23375 1.21945L2.66202 0.839584C2.86841 0.657839 3.1903 0.643949 3.37898 0.809662L5.84067 2.97166C6.02903 3.13758 6.01416 3.42029 5.80746 3.60259L4.14497 5.06124L4.2984 5.28804C4.38369 5.41443 4.47386 5.5561 4.57017 5.70999C5.02748 6.43435 5.65316 7.42586 6.8615 8.48612C8.06669 9.54515 9.19399 10.0942 10.0162 10.4948C10.1939 10.5811 10.3561 10.6605 10.5017 10.7366L10.7605 10.8714L12.4219 9.41178C12.6291 9.23052 12.9521 9.21711 13.1408 9.38234L15.6014 11.5439C15.7895 11.7095 15.7746 11.9922 15.5679 12.1737Z" fill="#ABB0B9"/>
</g>
<defs>
<clipPath id="clip0_1_247">
<rect width="15.9406" height="14" fill="white" transform="translate(0.564331)"/>
</clipPath>
</defs>
</svg>
