<svg width="17" height="14" viewBox="0 0 17 14" fill="none" xmlns="http://www.w3.org/2000/svg">
<path fill-rule="evenodd" clip-rule="evenodd" d="M1.77522 0L0.76766 0.92457L3.66367 3.58203C3.39391 3.78718 3.12694 4.0075 2.86291 4.24179C2.27213 4.76605 1.73765 5.32575 1.26715 5.88568C0.983236 6.22356 0.781659 6.48935 0.671293 6.6477L0.425781 6.99995L0.671293 7.3522C0.781659 7.51055 0.983236 7.77634 1.26715 8.11422C1.73765 8.67415 2.27213 9.23385 2.86291 9.75811C4.59461 11.2948 6.45279 12.2301 8.39605 12.2301C9.6221 12.2301 10.8143 11.8578 11.9622 11.197L15.0168 14L16.0243 13.0754L1.77522 0ZM10.9214 10.2419L9.84374 9.25304C9.41943 9.48314 8.92448 9.61518 8.39592 9.61518C6.82201 9.61518 5.5461 8.44437 5.5461 7.0001C5.5461 6.51508 5.69 6.0609 5.94075 5.67155L4.67678 4.51169C4.40079 4.71593 4.12613 4.93975 3.85346 5.18172C3.31612 5.65855 2.82635 6.17144 2.39557 6.6841C2.30253 6.79482 2.21655 6.90046 2.13795 6.99995C2.21655 7.09944 2.30253 7.20508 2.39557 7.3158C2.82635 7.82846 3.31612 8.34135 3.85346 8.81818C5.34495 10.1417 6.89627 10.9226 8.39605 10.9226C9.22829 10.9226 10.0764 10.6821 10.9214 10.2419ZM7.01932 6.66127C6.98781 6.76934 6.97101 6.88292 6.97101 7.0001C6.97101 7.72224 7.60896 8.30764 8.39592 8.30764C8.52362 8.30764 8.6474 8.29223 8.76517 8.26332L7.01932 6.66127ZM14.1656 9.54385L13.1581 8.61926C13.6099 8.20015 14.0252 7.75794 14.3966 7.31591C14.4896 7.20519 14.5756 7.09955 14.6542 7.00006C14.5756 6.90057 14.4896 6.79493 14.3966 6.68421C13.9658 6.17155 13.476 5.65865 12.9387 5.18183C11.4472 3.85829 9.8959 3.07744 8.39612 3.07744C8.02401 3.07744 7.64872 3.12551 7.27196 3.21801L6.14487 2.18376C6.88045 1.91463 7.6317 1.7699 8.39612 1.7699C10.3394 1.7699 12.1976 2.7052 13.9293 4.2419C14.52 4.76616 15.0545 5.32586 15.525 5.88579C15.8089 6.22367 16.0105 6.48946 16.1209 6.64781L16.3664 7.00006L16.1209 7.35231C16.0105 7.51066 15.8089 7.77645 15.525 8.11433C15.1181 8.5986 14.6633 9.0827 14.1656 9.54385Z" fill="#ABB0B9"/>
</svg>
