<svg width="25" height="25" viewBox="0 0 25 25" fill="none" xmlns="http://www.w3.org/2000/svg">
<g clip-path="url(#clip0_1_5237)">
<path d="M12.5002 0C5.59668 0 0.000244141 5.59644 0.000244141 12.5C0.000244141 14.9485 0.704395 17.2326 1.92109 19.1607L24.9972 12.2702C24.8747 5.4728 19.327 0 12.5002 0Z" fill="#4A75C3"/>
<path d="M25 12.4999C25 12.4231 24.9985 12.3467 24.9971 12.2702L15.6705 2.9436L9.32959 11.7546L13.6325 16.0575L6.32178 23.3682C8.14419 24.4064 10.2528 24.9999 12.5001 25C19.4037 24.9999 25 19.4035 25 12.4999Z" fill="#4F5AA8"/>
<path d="M21.3441 10.0544C20.7605 9.47081 19.814 9.47081 19.2305 10.0544L13.1255 16.1594L14.6205 18.8916L21.3441 12.168C21.9276 11.5844 21.9276 10.6379 21.3441 10.0544Z" fill="#6FAEE8"/>
<path d="M23.0924 11.8025C22.5089 11.219 21.5624 11.219 20.9788 11.8025L16.0432 16.7381L9.46645 16.0622L3.11528 17.9665L1.92139 19.1604C3.01836 20.899 4.53164 22.3484 6.32183 23.3682L7.46509 22.2249L15.4347 20.7174C16.0212 20.6019 16.847 20.1616 17.2697 19.7389L23.0925 13.9161C23.676 13.3326 23.676 12.386 23.0924 11.8025Z" fill="#BCDEF7"/>
<path d="M16.9836 6.11406C16.9836 8.59043 14.9763 10.5978 12.4999 10.5978L9.36133 6.11406L12.4999 1.63037C14.9763 1.63037 16.9836 3.6377 16.9836 6.11406Z" fill="#FFD652"/>
<path d="M8.01636 6.11406C8.01636 8.59043 10.0237 10.5978 12.5 10.5978V1.63037C10.0237 1.63037 8.01636 3.6377 8.01636 6.11406Z" fill="#FBE287"/>
<path d="M12.5 9.4779L10.377 6.08118L12.5 2.68445C14.3729 2.68445 15.8967 4.20818 15.8967 6.08118C15.8967 7.95417 14.3729 9.4779 12.5 9.4779Z" fill="#F7EDBC"/>
<path d="M9.10327 6.08118C9.10327 7.95417 10.627 9.4779 12.5 9.4779V2.68445C10.6271 2.68445 9.10327 4.20818 9.10327 6.08118Z" fill="white"/>
<path d="M16.9836 8.58416C16.9836 11.0605 14.9763 13.0678 12.4999 13.0678L9.36133 8.58416L12.4999 4.10046C14.9763 4.10046 16.9836 6.10779 16.9836 8.58416Z" fill="#FDBA4C"/>
<path d="M8.01636 8.58416C8.01636 11.0605 10.0237 13.0678 12.5 13.0678V4.10046C10.0237 4.10046 8.01636 6.10779 8.01636 8.58416Z" fill="#FFD652"/>
<path d="M12.5 11.948L10.377 8.55127L12.5 5.15454C14.3729 5.15454 15.8967 6.67827 15.8967 8.55127C15.8967 10.4243 14.3729 11.948 12.5 11.948Z" fill="#FBE287"/>
<path d="M9.10327 8.55127C9.10327 10.4243 10.627 11.948 12.5 11.948V5.15454C10.6271 5.15454 9.10327 6.67827 9.10327 8.55127Z" fill="#F7EDBC"/>
<path d="M15.0065 14.1595L8.56518 14.1548C7.64145 14.1548 6.69092 14.3908 5.98403 15.0976L3.11523 17.9665C4.64336 19.4947 7.121 19.4947 8.64907 17.9665L9.46641 17.1492C9.46626 17.1486 15.0065 17.1486 15.0065 17.1486C15.8317 17.1486 16.5011 16.4793 16.5011 15.654C16.5011 14.8288 15.8317 14.1595 15.0065 14.1595Z" fill="white"/>
<path d="M15.0259 14.703H13.7837L14.0942 15.6541L13.7837 16.6052H15.0265C15.5396 16.6052 15.9576 16.1785 15.9576 15.6541C15.9576 15.1296 15.5396 14.703 15.0259 14.703Z" fill="#BCDEF7"/>
<path d="M13.7837 14.703L13.7842 16.6052C14.3082 16.6052 14.7348 16.1785 14.7348 15.6541C14.7348 15.1296 14.3082 14.703 13.7837 14.703Z" fill="#DDEFFB"/>
</g>
<defs>
<clipPath id="clip0_1_5237">
<rect width="25" height="25" fill="white"/>
</clipPath>
</defs>
</svg>
