<svg width="34" height="15" viewBox="0 0 34 15" fill="none" xmlns="http://www.w3.org/2000/svg">
<path d="M1 4C1 2.34315 2.34315 1 4 1H30C31.6569 1 33 2.34315 33 4V11C33 12.6569 31.6569 14 30 14H4C2.34315 14 1 12.6569 1 11V4Z" fill="#077B21" stroke="#E8E6E6" stroke-opacity="0.5" stroke-width="0.5"/>
<path d="M8.9375 7.91016V6.43359H9.53516V7.91016H10.3828V8.52734H9.53516V10H8.9375V8.52734H6.24609V8L8.25781 4.39844H8.88672L6.9375 7.91016H8.9375ZM11.418 9.23047C11.5247 9.23047 11.6146 9.27083 11.6875 9.35156C11.763 9.43229 11.8008 9.53125 11.8008 9.64844C11.8008 9.76562 11.763 9.86458 11.6875 9.94531C11.6146 10.0234 11.5247 10.0625 11.418 10.0625C11.306 10.0625 11.2122 10.0234 11.1367 9.94531C11.0612 9.86458 11.0234 9.76562 11.0234 9.64844C11.0234 9.53125 11.0612 9.43229 11.1367 9.35156C11.2122 9.27083 11.306 9.23047 11.418 9.23047ZM13.4688 5.01562V6.59375C13.7891 6.54167 14.1029 6.51432 14.4102 6.51172C14.793 6.51172 15.1315 6.58333 15.4258 6.72656C15.7201 6.86719 15.9453 7.0625 16.1016 7.3125C16.2604 7.5625 16.3398 7.84766 16.3398 8.16797C16.3398 8.53516 16.2578 8.85938 16.0938 9.14062C15.9323 9.41927 15.7018 9.63542 15.4023 9.78906C15.1029 9.9401 14.7565 10.0156 14.3633 10.0156C14.0534 10.0156 13.7279 9.96094 13.3867 9.85156C13.0456 9.74219 12.7422 9.59375 12.4766 9.40625L12.7383 8.86328C12.9674 9.04036 13.2201 9.17839 13.4961 9.27734C13.7747 9.3763 14.043 9.42578 14.3008 9.42578C14.7227 9.42578 15.0547 9.31641 15.2969 9.09766C15.5391 8.87891 15.6602 8.58203 15.6602 8.20703C15.6602 7.8763 15.5378 7.61458 15.293 7.42188C15.0508 7.22656 14.7253 7.12891 14.3164 7.12891C14.1237 7.12891 13.8828 7.14193 13.5938 7.16797C13.3073 7.19401 13.0677 7.22656 12.875 7.26562V4.39844H16.1211V5.01562H13.4688Z" fill="white"/>
<path d="M24 5.1237L24.4374 6.0041L24.5536 6.23799L24.812 6.27623L25.7845 6.42019L25.0823 7.10827L24.8958 7.29106L24.9393 7.54859L25.1029 8.51796L24.2315 8.06281L24 7.9419L23.7685 8.06281L22.8971 8.51796L23.0607 7.54859L23.1042 7.29106L22.9177 7.10827L22.2155 6.42019L23.188 6.27623L23.4464 6.23799L23.5626 6.0041L24 5.1237Z" fill="white" stroke="white"/>
</svg>
