<svg width="121" height="121" viewBox="0 0 121 121" fill="none" xmlns="http://www.w3.org/2000/svg">
<g clip-path="url(#clip0_1_6102)">
<path d="M60.5 121C93.9132 121 121 93.9132 121 60.5C121 27.0868 93.9132 0 60.5 0C27.0868 0 0 27.0868 0 60.5C0 93.9132 27.0868 121 60.5 121Z" fill="#FD8469"/>
<path d="M119.712 72.9635L92.4818 39.7892L88.1348 41.3863L77.0203 30.2718L73.6053 29.1979H67.0189L62.2999 33.9169V52.5941L55.1512 63.4347L49.6365 61.4874V50.1793L45.7408 46.2837L40.1299 46.7677L36.1939 50.7037V81.8069L26.8892 95.8722L51.3255 120.309C54.3174 120.764 57.3812 121 60.5 121C89.6409 121 113.967 100.397 119.712 72.9635Z" fill="#FC6F58"/>
<path d="M92.4816 39.7875H48.8604V95.8712H92.4816V39.7875Z" fill="#324A5E"/>
<path d="M92.4827 39.7875H70.5508V95.8712H92.4827V39.7875Z" fill="#2B3B4E"/>
<path d="M78.9798 46.7336C78.1454 46.7336 77.4692 46.0573 77.4692 45.223V37.7536C77.4692 34.0055 74.4194 30.9557 70.6713 30.9557C66.9231 30.9557 63.8733 34.0055 63.8733 37.7536V45.2226C63.8733 46.057 63.1969 46.7332 62.3627 46.7332C61.5282 46.7332 60.8521 46.0568 60.8521 45.2226V37.7536C60.8521 32.3391 65.257 27.9342 70.6715 27.9342C76.086 27.9342 80.4909 32.3391 80.4909 37.7536V45.2226C80.4907 46.0575 79.8143 46.7336 78.9798 46.7336Z" fill="#E6F3FF"/>
<path d="M70.672 27.9347C70.6313 27.9347 70.5909 27.9371 70.5503 27.938V30.9625C70.5914 30.9618 70.6309 30.9564 70.672 30.9564C74.4202 30.9564 77.47 34.0062 77.47 37.7544V45.2233C77.47 46.0578 78.1464 46.7339 78.9806 46.7339C79.8151 46.7339 80.4912 46.0575 80.4912 45.2233V37.7534C80.491 32.3391 76.0863 27.9347 70.672 27.9347Z" fill="#CFDBE6"/>
<path d="M59.5062 53.9367H26.8892V95.8712H59.5062V53.9367Z" fill="#FFD15D"/>
<path d="M59.5015 53.9367H43.1157V95.8712H59.5015V53.9367Z" fill="#F9B54C"/>
<path d="M49.4091 59.1307C48.7855 59.1307 48.2797 58.6252 48.2797 58.0013V52.4167C48.2797 49.614 45.9994 47.334 43.197 47.334C40.3944 47.334 38.1143 49.6143 38.1143 52.4167V58.0013C38.1143 58.625 37.6088 59.1307 36.9849 59.1307C36.361 59.1307 35.8555 58.6252 35.8555 58.0013V52.4167C35.8555 48.3684 39.1489 45.0749 43.1975 45.0749C47.246 45.0749 50.5392 48.3684 50.5392 52.4167V58.0013C50.5385 58.6252 50.0328 59.1307 49.4091 59.1307Z" fill="#E6F3FF"/>
<path d="M43.1966 45.0746C43.1701 45.0746 43.1441 45.0784 43.1177 45.0787V47.3377C43.1441 47.3372 43.1699 47.3337 43.1966 47.3337C45.9992 47.3337 48.2793 49.614 48.2793 52.4164V58.0011C48.2793 58.6248 48.7848 59.1305 49.4087 59.1305C50.0324 59.1305 50.5381 58.625 50.5381 58.0011V52.4164C50.5386 48.3683 47.2451 45.0746 43.1966 45.0746Z" fill="#CFDBE6"/>
</g>
<defs>
<clipPath id="clip0_1_6102">
<rect width="121" height="121" fill="white"/>
</clipPath>
</defs>
</svg>
