<svg width="15" height="16" viewBox="0 0 15 16" fill="none" xmlns="http://www.w3.org/2000/svg">
<path fill-rule="evenodd" clip-rule="evenodd" d="M3.71747 3.04658C3.94138 1.38253 5.60433 0 7.5001 0C9.39587 0 11.0588 1.38253 11.2827 3.04658H13.4767C14.318 3.04658 15 3.72858 15 4.56986C15 4.64194 14.9949 4.71393 14.9847 4.78529L13.679 13.925C13.5718 14.6755 12.9291 15.2329 12.171 15.2329H2.82916C2.07109 15.2329 1.42839 14.6755 1.32118 13.925L0.0155038 4.78529C-0.103472 3.95246 0.475223 3.18086 1.30806 3.06189C1.37941 3.05169 1.4514 3.04658 1.52348 3.04658H3.71747ZM9.73012 3.04637C9.49858 2.23757 8.56492 1.52309 7.50011 1.52309C6.43531 1.52309 5.50164 2.23757 5.27011 3.04637H9.73012ZM1.52342 4.56959H3.69182V6.09288H5.21511V4.56959H9.78497V6.09288H11.3083V4.56959H13.4767L12.171 13.7093H2.8291L1.52342 4.56959Z" fill="white"/>
</svg>
