<svg width="16" height="16" viewBox="0 0 16 16" fill="none" xmlns="http://www.w3.org/2000/svg">
<rect width="16" height="16" stroke="black"/>
<path d="M5.33325 5.82657C5.33325 5.50829 5.44711 5.2005 5.65424 4.95885L8.84818 1.23259C9.13326 0.899992 9.60811 0.8041 9.99992 1C10.3824 1.19127 10.5661 1.63471 10.4309 2.04044L9.33325 5.33333H12.4023C12.4823 5.33333 12.5621 5.34053 12.6408 5.35484C13.3653 5.48657 13.8459 6.18068 13.7141 6.90518L12.8656 11.5718C12.7504 12.2058 12.1982 12.6667 11.5538 12.6667H6.66659C5.93021 12.6667 5.33325 12.0697 5.33325 11.3333V5.82657Z" stroke="#9B9B9B" stroke-linecap="square"/>
<path d="M2.66675 12V6" stroke="#9B9B9B" stroke-width="2.33" stroke-linecap="square"/>
</svg>
