<svg width="17" height="17" viewBox="0 0 17 17" fill="none" xmlns="http://www.w3.org/2000/svg">
<rect x="15.9993" y="16.166" width="16" height="16" transform="rotate(-179.439 15.9993 16.166)" stroke="black"/>
<path d="M10.7233 10.2874C10.7202 10.6057 10.6033 10.9124 10.3939 11.152L7.16356 14.8468C6.87523 15.1765 6.39946 15.2678 6.00959 15.068C5.62896 14.873 5.44963 14.4278 5.58885 14.0234L6.71869 10.7415L3.64979 10.7114C3.5698 10.7106 3.49005 10.7026 3.41149 10.6875C2.68832 10.5487 2.2146 9.84993 2.35343 9.12676L3.24759 4.46863C3.36907 3.8358 3.92574 3.3804 4.57009 3.38671L9.45708 3.4346C10.1934 3.44182 10.7845 4.04459 10.7773 4.78094L10.7233 10.2874Z" stroke="#9B9B9B" stroke-linecap="square"/>
<path d="M13.4504 4.14042L13.3916 10.1401" stroke="#9B9B9B" stroke-width="2.33" stroke-linecap="square"/>
</svg>
