<svg width="14" height="13" viewBox="0 0 14 13" fill="none" xmlns="http://www.w3.org/2000/svg">
<path d="M0.5 6.5C0.5 9.81371 3.18629 12.5 6.5 12.5H7.5C10.8137 12.5 13.5 9.81371 13.5 6.5C13.5 3.18629 10.8137 0.500001 7.5 0.500001H6.5C3.18629 0.500001 0.5 3.18629 0.5 6.5Z" fill="#077B21" stroke="white"/>
<path d="M9.43403 4.44104C9.60493 4.61194 9.60493 4.88948 9.43403 5.06038L5.93403 8.56038C5.76313 8.73127 5.4856 8.73127 5.3147 8.56038L3.5647 6.81038C3.3938 6.63948 3.3938 6.36194 3.5647 6.19104C3.7356 6.02014 4.01313 6.02014 4.18403 6.19104L5.62505 7.63069L8.81606 4.44104C8.98696 4.27014 9.2645 4.27014 9.4354 4.44104H9.43403Z" fill="white"/>
</svg>
