<svg width="22" height="20" viewBox="0 0 22 20" fill="none" xmlns="http://www.w3.org/2000/svg">
<path fill-rule="evenodd" clip-rule="evenodd" d="M5.819 16.1734C6.87221 16.1879 7.71562 17.0509 7.70597 18.1042C7.69631 19.1574 6.83722 20.0048 5.78392 20.0001C4.73062 19.9953 3.87925 19.1401 3.87915 18.0868C3.8822 17.5757 4.0884 17.0868 4.45229 16.7278C4.81618 16.3689 5.30789 16.1694 5.819 16.1734ZM12.293 16.1734C13.3451 16.1924 14.1844 17.0573 14.1717 18.1095C14.1591 19.1616 13.2993 20.0061 12.2471 19.9999C11.1949 19.9937 10.3451 19.139 10.345 18.0868C10.3546 17.0205 11.2268 16.1639 12.293 16.1734ZM22 3.49971H5.5L2.75 0.199707H0L7.7 11.1997H14.3L13.2 12.8497H4.95L2.75 15.0497H14.3L22 3.49971Z" fill="#96CEE5"/>
<path fill-rule="evenodd" clip-rule="evenodd" d="M6.59985 5.69971H17.5999L16.4999 6.79971H7.69985L6.59985 5.69971ZM8.24985 7.89971H15.3999L14.2999 8.99971H9.34985L8.24985 7.89971Z" fill="#4391B2"/>
</svg>
