<svg width="17" height="14" viewBox="0 0 17 14" fill="none" xmlns="http://www.w3.org/2000/svg">
<path d="M14.1709 2.0499C12.6648 0.727198 10.6633 0 8.53463 0C6.40596 0 4.40442 0.727198 2.89837 2.0499C1.39233 3.3726 0.564331 5.13047 0.564331 7C0.564331 8.86953 1.39233 10.6274 2.89837 11.9501C4.40442 13.2728 6.40596 14 8.53463 14C10.6633 14 12.6648 13.2728 14.1709 11.9501C15.6769 10.6274 16.5049 8.86953 16.5049 7C16.5049 5.13047 15.6769 3.3726 14.1709 2.0499ZM8.53463 13.227C4.62609 13.227 1.44449 10.4327 1.44449 7C1.44449 3.56728 4.62609 0.773006 8.53463 0.773006C12.4432 0.773006 15.6248 3.56728 15.6248 7C15.6248 10.4327 12.4432 13.227 8.53463 13.227Z" fill="#ABB0B9"/>
<path d="M8.53468 5.81755C9.67888 5.81755 10.6079 4.99874 10.6079 3.9967C10.6079 2.99465 9.67888 2.17297 8.53468 2.17297C7.39048 2.17297 6.46143 2.99179 6.46143 3.99383C6.46143 4.99588 7.39048 5.81755 8.53468 5.81755ZM8.53468 2.94598C9.19317 2.94598 9.72778 3.41551 9.72778 3.99383C9.72778 4.57216 9.19317 5.04169 8.53468 5.04169C7.87619 5.04169 7.34158 4.57216 7.34158 3.99383C7.34158 3.41551 7.87619 2.94598 8.53468 2.94598Z" fill="#ABB0B9"/>
<path d="M11.6771 8.0307C10.9501 7.09164 9.89395 6.61353 8.5346 6.61353C7.17525 6.61353 6.11906 7.08878 5.39212 8.0307C4.85098 8.72927 4.50544 9.68265 4.36853 10.8565C4.34245 11.0683 4.51848 11.2602 4.75971 11.2802C5.00094 11.3031 5.21935 11.1485 5.24216 10.9366C5.51925 8.5804 6.62759 7.38653 8.5346 7.38653C10.4416 7.38653 11.5499 8.5804 11.827 10.9366C11.8499 11.1342 12.0422 11.2831 12.2638 11.2831C12.2801 11.2831 12.2932 11.2831 12.3095 11.2802C12.5507 11.2573 12.7267 11.0683 12.7007 10.8565C12.5638 9.67978 12.2182 8.72927 11.6771 8.0307Z" fill="#ABB0B9"/>
</svg>
