<svg width="96" height="96" viewBox="0 0 96 96" fill="none" xmlns="http://www.w3.org/2000/svg">
<circle cx="48" cy="48" r="47.75" fill="#D32626" fill-opacity="0.25" stroke="#FF6464" stroke-width="0.5"/>
<g clip-path="url(#clip0_1_1766)">
<path d="M47.9999 48.5926C55.6684 48.5926 61.8835 42.4912 61.8835 34.963C61.8835 27.4348 55.6684 21.3334 47.9999 21.3334C40.3314 21.3334 34.1163 27.4348 34.1163 34.963C34.1163 42.4912 40.3314 48.5926 47.9999 48.5926ZM43.043 53.7037C32.3592 53.7037 23.7036 62.201 23.7036 72.6894C23.7036 74.4357 25.1462 75.8519 26.925 75.8519H69.0748C70.8536 75.8519 72.2962 74.4357 72.2962 72.6894C72.2962 62.201 63.6407 53.7037 52.9568 53.7037H43.043Z" fill="#3E4958"/>
</g>
<defs>
<clipPath id="clip0_1_1766">
<rect width="48.5926" height="54.5185" fill="white" transform="translate(23.7036 21.3334)"/>
</clipPath>
</defs>
</svg>
