<svg width="21" height="19" viewBox="0 0 21 19" fill="none" xmlns="http://www.w3.org/2000/svg">
<path d="M10.924 3.94214C10.9239 3.94169 10.9238 3.94125 10.9236 3.9408L10.8942 3.94776M10.924 3.94214C10.9241 3.9426 10.9242 3.94306 10.9243 3.94352L10.8959 3.95007M10.924 3.94214C10.9386 4.00383 10.9466 4.03697 10.9519 4.0561C10.9531 4.06042 10.9535 4.06166 10.9532 4.06053C10.9527 4.05892 10.9506 4.05254 10.9471 4.04346C10.944 4.0357 10.9359 4.01557 10.9215 3.99028C10.9171 3.98257 10.9088 3.96818 10.8959 3.95007M10.924 3.94214L10.5531 4.02908M10.8942 3.94776C10.8948 3.94854 10.8953 3.94931 10.8959 3.95007M10.8942 3.94776C10.8753 3.92163 10.8471 3.88828 10.8079 3.85616C10.7673 3.82301 10.7072 3.78602 10.6321 3.76397L10.5531 4.02908M10.8942 3.94776L10.5533 4.02836C10.5532 4.0286 10.5532 4.02884 10.5531 4.02908M10.8959 3.95007L10.5531 4.02908M10.5531 4.02908C10.5436 4.06591 10.5356 4.10015 10.5294 4.13099C10.4982 4.27914 10.4936 4.29102 10.4512 4.1152L10.3081 4.08633L10.3063 4.08597L10.0458 4.03339C10.0451 4.03498 10.0445 4.0364 10.0439 4.03763C10.0364 4.05529 10.0322 4.06856 10.0307 4.07328C10.0301 4.07548 10.0297 4.07688 10.0296 4.07687C10.0295 4.07684 10.0322 4.06567 10.0398 4.02974M10.5531 4.02908L10.0398 4.02974M10.0398 4.02974C10.0399 4.02915 10.04 4.02856 10.0401 4.02796L10.0475 4.02951M10.0398 4.02974C10.0734 3.86404 10.1443 3.63275 10.2262 3.4093C10.2755 3.52721 10.3193 3.64596 10.3569 3.76411C10.208 3.807 10.1272 3.90488 10.1007 3.93999C10.0723 3.97763 10.0556 4.0115 10.0475 4.02951M10.0475 4.02951L10.3108 4.08495L10.3124 4.0853L10.451 4.11448L10.0475 4.02951ZM4.78923 1.07822L4.78736 1.07836C3.32955 1.18148 2.2096 1.83619 1.44976 3.00931L1.44965 3.00947C1.02218 3.66888 0.697901 4.57053 0.534065 5.61422C0.513407 5.74854 0.49974 6.01327 0.500004 6.3099C0.500266 6.60474 0.514224 6.88453 0.537127 7.0448L0.537326 7.04622C0.757018 8.6159 1.43978 10.1571 2.67978 11.8073C4.27777 13.9332 6.81304 16.1655 9.66147 17.9355L9.66252 17.9361C9.88073 18.0725 10.1431 18.2298 10.3541 18.3528C10.406 18.3831 10.4542 18.4109 10.4975 18.4356C10.5042 18.4317 10.5112 18.4278 10.5182 18.4237C10.6665 18.3381 10.8672 18.2175 11.0888 18.0813C11.5328 17.8083 12.0459 17.4813 12.3692 17.2603L12.3692 17.2603C15.7789 14.9297 18.2965 12.3079 19.5378 9.86297L19.538 9.86264C20.3392 8.28743 20.6333 6.80297 20.445 5.56305L20.4448 5.5618C20.1725 3.73742 19.3449 2.37801 18.1985 1.6786C17.4613 1.22927 16.4642 1.00422 15.3459 1.07432C13.8918 1.16581 12.8695 1.57475 12.1229 2.28924L12.1226 2.2896C11.7797 2.61701 11.5192 2.97264 11.3206 3.38127L11.3206 3.38127L11.3188 3.38482C11.2045 3.6152 11.0592 4.03338 11.0195 4.2299L11.0195 4.2299L11.0187 4.23402L11.0173 4.24038C11.0106 4.27257 10.9994 4.32575 10.9859 4.36932C10.9858 4.36974 10.9856 4.37031 10.9854 4.37101C10.9808 4.38615 10.9569 4.46557 10.8989 4.5424C10.8683 4.583 10.7777 4.69143 10.6111 4.73096C10.414 4.77773 10.2569 4.6974 10.1747 4.63019C10.1037 4.57207 10.0659 4.50866 10.0519 4.48411C10.0344 4.45325 10.023 4.42596 10.0164 4.40941C10.0034 4.37635 9.9942 4.34463 9.98853 4.32424C9.97671 4.28178 9.96361 4.22642 9.95047 4.17088L9.94984 4.16816C9.83978 3.69072 9.59204 3.1636 9.27465 2.73907C9.206 2.64798 9.06375 2.49247 8.89926 2.33113C8.73351 2.16856 8.58037 2.03462 8.49734 1.97592C7.73535 1.43863 6.86523 1.15146 5.67262 1.0765C5.30105 1.05407 5.10909 1.05439 4.78923 1.07822Z" stroke="#FF6464"/>
</svg>
