<svg width="21" height="19" viewBox="0 0 21 19" fill="none" xmlns="http://www.w3.org/2000/svg">
<path d="M4.75208 0.0196152C3.14345 0.133444 1.87845 0.86796 1.0301 2.17806C0.555456 2.91043 0.211822 3.88335 0.0400051 4.97868C-0.0136877 5.32661 -0.0136877 6.16636 0.0421528 6.55725C0.276253 8.23031 1.00218 9.84969 2.28007 11.5507C3.92307 13.737 6.50891 16.0093 9.39758 17.8048C9.8443 18.084 10.465 18.4448 10.4929 18.4448C10.5681 18.4448 11.9856 17.5729 12.6514 17.1175C16.1006 14.7594 18.6907 12.079 19.9836 9.53183C20.817 7.89312 21.1477 6.30167 20.9394 4.92928C20.6516 3.00064 19.7646 1.48865 18.4588 0.691849C17.6169 0.178545 16.5129 -0.0598507 15.3145 0.0153198C13.7789 0.111967 12.632 0.5501 11.7772 1.36838C11.3928 1.73564 11.0964 2.1394 10.8709 2.60331C10.7399 2.86748 10.5788 3.32709 10.5294 3.57193C10.4951 3.73515 10.4929 3.73301 10.4371 3.49676C10.3104 2.94694 10.0312 2.35632 9.67463 1.87953C9.49208 1.63684 9.01958 1.17293 8.78548 1.00756C7.93284 0.406202 6.96852 0.0969334 5.70352 0.0174675C5.31263 -0.00615692 5.09786 -0.00615692 4.75208 0.0196152Z" fill="url(#paint0_linear_1_7982)"/>
<defs>
<linearGradient id="paint0_linear_1_7982" x1="-26.5" y1="-6.36499" x2="17.5" y2="8.13501" gradientUnits="userSpaceOnUse">
<stop stop-color="white"/>
<stop offset="1" stop-color="#FF6464"/>
</linearGradient>
</defs>
</svg>
