<svg width="26" height="26" viewBox="0 0 26 26" fill="none" xmlns="http://www.w3.org/2000/svg">
<rect x="0.922852" y="0.923096" width="24.5769" height="24.5769" rx="12.2885" fill="white" stroke="#DDDDDB"/>
<path fill-rule="evenodd" clip-rule="evenodd" d="M13.723 8.71952C14.3065 8.43391 14.8155 8.33984 15.6052 8.33985C17.6259 8.34822 19.1216 10.0525 19.1216 12.2234C19.1216 13.8804 18.1977 15.4811 16.4768 17.0289C15.5735 17.8413 14.4201 18.6453 13.5942 19.073L13.1216 19.3177L12.649 19.073C11.823 18.6453 10.6697 17.8413 9.7664 17.0289C8.04549 15.4811 7.12158 13.8804 7.12158 12.2234C7.12158 10.0293 8.60327 8.33984 10.6422 8.33984C11.4036 8.33984 11.9387 8.44281 12.5335 8.73701C12.7406 8.83944 12.9351 8.96093 13.1161 9.10117C13.3043 8.9526 13.507 8.82526 13.723 8.71952Z" stroke="#FF6464" stroke-width="1.5"/>
</svg>
